SplineFontDB: 3.2
FontName: Basica-Italic
FullName: Basica
FamilyName: Basica
Weight: Regular
Copyright: 
Version: 1.000; ttfautohint (v1.8.2.53-6de2)
ItalicAngle: -9
UnderlinePosition: -105
UnderlineWidth: 39
Ascent: 819
Descent: 205
InvalidEm: 0
sfntRevision: 0x00010000
LayerCount: 2
Layer: 0 1 "Back" 1
Layer: 1 0 "Fore" 0
XUID: [1021 644 -1152176804 10069]
StyleMap: 0x0001
FSType: 0
OS2Version: 4
OS2_WeightWidthSlopeOnly: 0
OS2_UseTypoMetrics: 1
CreationTime: 1592915285
ModificationTime: 1614129129
PfmFamily: 81
TTFWeight: 500
TTFWidth: 5
LineGap: 0
VLineGap: 0
Panose: 0 0 0 0 0 0 0 0 0 0
OS2TypoAscent: 1035
OS2TypoAOffset: 0
OS2TypoDescent: -361
OS2TypoDOffset: 0
OS2TypoLinegap: 0
OS2WinAscent: 1103
OS2WinAOffset: 0
OS2WinDescent: 307
OS2WinDOffset: 0
HheadAscent: 1035
HheadAOffset: 0
HheadDescent: -361
HheadDOffset: 0
OS2SubXSize: 666
OS2SubYSize: 614
OS2SubXOff: 0
OS2SubYOff: 77
OS2SupXSize: 666
OS2SupYSize: 614
OS2SupXOff: 0
OS2SupYOff: 358
OS2StrikeYSize: 40
OS2StrikeYPos: 300
OS2CapHeight: 722
OS2XHeight: 500
OS2Vendor: 'NONE'
OS2CodePages: 20000197.00000000
OS2UnicodeRanges: a00002ff.5000204b.00000000.00000000
Lookup: 1 0 0 "'aalt' Activar todas las variantes lookup 0" { "'aalt' Activar todas las variantes lookup 0 subtable"  } ['aalt' ('DFLT' <'dflt' > 'cyrl' <'BSH ' 'CHU ' 'dflt' > 'latn' <'AZE ' 'CAT ' 'CRT ' 'KAZ ' 'MOL ' 'NLD ' 'ROM ' 'TAT ' 'TRK ' 'dflt' > ) ]
Lookup: 3 0 0 "'aalt' Activar todas las variantes lookup 1" { "'aalt' Activar todas las variantes lookup 1 subtable"  } ['aalt' ('DFLT' <'dflt' > 'cyrl' <'BSH ' 'CHU ' 'dflt' > 'latn' <'AZE ' 'CAT ' 'CRT ' 'KAZ ' 'MOL ' 'NLD ' 'ROM ' 'TAT ' 'TRK ' 'dflt' > ) ]

StartChar: A
Encoding: 65 65 0
Width: 694
GlyphClass: 2
Flags: W
HStem: -7 21G<63 83 609 630.5> 193 90<272 512> 709 20G<453 471>
LayerCount: 2
Fore
SplineSet
669 55 m 2
 670 51 670 47 670 43 c 7
 670 17 643 -7 618 -7 c 7
 600 -7 584 4 580 21 c 2
 536 193 l 1
 220 193 l 1
 120 21 l 2
 110 4 92 -7 74 -7 c 3
 52 -7 35 12 35 31 c 3
 35 40 39 49 43 55 c 2
 417 701 l 2
 427 718 444 729 462 729 c 3
 480 729 495 718 499 701 c 2
 669 55 l 2
437 568 m 1
 272 283 l 1
 512 283 l 1
 437 568 l 1
EndSplineSet
Substitution2: "Single Substitution lookup 29 subtable" ordfeminine
Substitution2: "'aalt' Activar todas las variantes lookup 0 subtable" ordfeminine
EndChar

StartChar: Atilde
Encoding: 195 195 5
Width: 694
GlyphClass: 2
Flags: W
HStem: -7 21G<63 83 609 630.5> 193 90<272 512> 709 20G<453 471> 801 70<511.926 611.226> 873 70<342.774 442.074>
VStem: 259 68<797.487 857.781> 627 68<886.219 946.513>
LayerCount: 2
Fore
SplineSet
660 949 m 7
 679 949 695 933 695 914 c 7
 695 890 661 801 568 801 c 7
 521 801 494 822 458 842 c 4
 434 855 410 873 386 873 c 7
 354 873 337 850 327 819 c 4
 323 805 309 795 294 795 c 7
 275 795 259 811 259 830 c 7
 259 854 293 943 386 943 c 7
 433 943 460 922 496 902 c 4
 520 889 544 871 568 871 c 7
 600 871 617 894 627 925 c 4
 631 939 645 949 660 949 c 7
EndSplineSet
Refer: 0 65 N 1 0 0 1 0 0 2
EndChar

StartChar: B
Encoding: 66 66 6
Width: 698
GlyphClass: 2
Flags: W
HStem: -0 90<188 513.734> 338 90<242 539.628> 632 90<274 564.659>
VStem: 586 91<160.191 301.829> 597 94<485.339 600.074>
LayerCount: 2
Fore
SplineSet
527 722 m 2xf0
 611 722 691 683 691 580 c 3xe8
 691 484 634 422 578 395 c 1
 645 362 677 317 677 251 c 3
 677 87 544 0 423 -0 c 2
 423 -0 227 0 129 -0 c 7
 106 0 90 16 90 38 c 7
 90 40 91 43 91 45 c 2
 191 677 l 2
 195 702 218 722 243 722 c 2
 527 722 l 2xf0
242 428 m 1
 455 428 l 2
 539 428 597 479 597 547 c 3
 597 610 537 632 487 632 c 2
 274 632 l 1
 242 428 l 1
188 90 m 1
 437 90 l 2
 527 90 586 159 586 239 c 3xf0
 586 324 510 338 436 338 c 2
 228 338 l 1
 188 90 l 1
EndSplineSet
EndChar

StartChar: C
Encoding: 67 67 7
Width: 692
GlyphClass: 2
Flags: W
HStem: -9 90<323.005 553.562> 641 90<404.112 636.546>
VStem: 103 92<217.762 425.453>
LayerCount: 2
Fore
SplineSet
195 322 m 3
 195 201 280 81 413 81 c 3
 555 81 588 127 616 127 c 7
 639 127 655 111 655 89 c 7
 655 13 481 -9 399 -9 c 3
 230 -9 103 130 103 304 c 3
 103 545 320 731 520 731 c 3
 597 731 652 724 724 683 c 0
 736 676 744 664 744 649 c 3
 744 615 712 597 691 597 c 3
 668 597 653 618 601 632 c 0
 575 639 550 641 506 641 c 3
 339 641 195 472 195 322 c 3
EndSplineSet
EndChar

StartChar: D
Encoding: 68 68 9
Width: 769
GlyphClass: 2
Flags: W
HStem: 0 90<188 514.34> 632 90<274 570.839>
VStem: 681 92<283.576 516.896>
LayerCount: 2
Fore
SplineSet
502 722 m 2
 655 722 773 599 773 423 c 3
 773 178 591 0 408 0 c 2
 129 0 l 2
 106 0 90 16 90 38 c 7
 90 57 157 464 191 677 c 0
 195 702 218 722 243 722 c 2
 502 722 l 2
188 90 m 1
 422 90 l 2
 589 90 681 263 681 410 c 3
 681 548 592 632 488 632 c 2
 274 632 l 1
 188 90 l 1
EndSplineSet
EndChar

StartChar: E
Encoding: 69 69 10
Width: 588
GlyphClass: 2
Flags: W
HStem: 0 90<168 521.349> 342 90<222 536.349> 632 90<254 622.17>
LayerCount: 2
Fore
SplineSet
593 722 m 2
 616 722 632 706 632 684 c 3
 632 648 599 632 579 632 c 2
 254 632 l 1
 222 432 l 1
 508 432 l 2
 531 432 547 416 547 394 c 3
 547 360 514 342 494 342 c 2
 208 342 l 1
 168 90 l 1
 493 90 l 2
 516 90 532 74 532 52 c 3
 532 18 499 0 479 0 c 2
 109 0 l 2
 86 0 70 16 70 38 c 7
 70 40 71 43 71 45 c 2
 171 677 l 2
 175 702 198 722 223 722 c 2
 593 722 l 2
EndSplineSet
EndChar

StartChar: F
Encoding: 70 70 15
Width: 567
GlyphClass: 2
Flags: W
HStem: 342 90<242 556.349> 632 90<274 641.349>
LayerCount: 2
Fore
SplineSet
613 722 m 2
 636 722 652 706 652 684 c 3
 652 650 619 632 599 632 c 2
 274 632 l 1
 242 432 l 1
 528 432 l 2
 551 432 567 416 567 394 c 3
 567 360 534 342 514 342 c 2
 228 342 l 1
 181 45 l 2
 177 20 154 0 129 -0 c 3
 106 0 90 16 90 38 c 7
 90 40 91 43 91 45 c 2
 191 677 l 2
 195 702 218 722 243 722 c 2
 613 722 l 2
EndSplineSet
EndChar

StartChar: G
Encoding: 71 71 16
Width: 757
GlyphClass: 2
Flags: W
HStem: -9 90<342.659 565.849> 294 90<457.83 636> 641 90<425.932 653.544>
VStem: 111 91<207.687 424.338>
LayerCount: 2
Fore
SplineSet
609 124 m 1
 636 294 l 1
 636 294 537 294 487 294 c 3
 464 294 448 310 448 332 c 3
 448 368 481 384 501 384 c 2
 695 384 l 2
 718 384 734 368 734 346 c 7
 734 344 733 341 733 339 c 2
 695 101 l 2
 693 87 685 75 674 67 c 0
 663 59 575 -9 449 -9 c 3
 230 -9 111 120 111 295 c 3
 111 588 361 731 566 731 c 3
 628 731 685 717 743 679 c 0
 753 673 758 661 758 649 c 3
 758 613 728 596 705 596 c 3
 697 596 689 598 683 602 c 0
 636 633 603 641 552 641 c 3
 339 641 202 484 202 309 c 3
 202 162 310 81 463 81 c 3
 527 81 582 108 609 124 c 1
EndSplineSet
EndChar

StartChar: H
Encoding: 72 72 17
Width: 754
GlyphClass: 2
Flags: W
HStem: -7 21G<117.5 141.5 612 635.5> 336 90<241 633> 709 20G<232.5 256 726.5 750.5>
VStem: 282 1<684.141 691.906> 585 1<30.0945 37.8594>
LayerCount: 2
Fore
SplineSet
245 729 m 3
 267 729 283 713 283 692 c 3
 283 690 282 687 282 684 c 2
 241 426 l 1
 647 426 l 1
 688 684 l 2
 692 709 714 729 739 729 c 3
 762 729 779 713 779 691 c 3
 779 689 778 686 778 684 c 2
 676 38 l 2
 672 13 648 -7 623 -7 c 7
 601 -7 585 9 585 30 c 7
 585 32 586 35 586 38 c 2
 633 336 l 1
 227 336 l 1
 180 38 l 2
 176 13 154 -7 129 -7 c 3
 106 -7 89 9 89 31 c 3
 89 33 90 36 90 38 c 2
 192 684 l 2
 196 709 220 729 245 729 c 3
EndSplineSet
EndChar

StartChar: I
Encoding: 73 73 18
Width: 300
GlyphClass: 2
Flags: W
HStem: -7 90<65.6509 118 208 247.17> 639 90<167.651 206 296 348.349>
VStem: 55 202<3.22762 72.0987> 157 202<649.901 718.099>
LayerCount: 2
Fore
SplineSet
210 729 m 2xd0
 320 729 l 2
 343 729 359 713 359 691 c 3xd0
 359 657 326 639 306 639 c 2
 296 639 l 1
 208 83 l 1
 208 83 215 83 218 83 c 3
 241 83 257 67 257 45 c 3
 257 9 224 -7 204 -7 c 2
 94 -7 l 2
 71 -7 55 9 55 31 c 3xe0
 55 65 88 83 108 83 c 7
 111 83 118 83 118 83 c 1
 206 639 l 1
 206 639 199 639 196 639 c 3
 173 639 157 655 157 677 c 3
 157 711 190 729 210 729 c 2xd0
EndSplineSet
EndChar

StartChar: J
Encoding: 74 74 23
Width: 537
GlyphClass: 2
Flags: W
HStem: -6 90<163.131 312.652> 639 90<294.83 467>
VStem: 35 88<123.943 176.632> 285 280<642.199 718.772>
LayerCount: 2
Fore
SplineSet
565 691 m 3
 565 689 564 686 564 684 c 2
 494 241 l 2
 474 113 356 -6 232 -6 c 7
 83 -6 35 99 35 136 c 3
 35 172 68 186 87 186 c 3
 104 186 117 177 123 163 c 0
 149 97 191 84 246 84 c 7
 328 84 394 175 404 241 c 2
 467 639 l 1
 467 639 372 639 324 639 c 3
 301 639 285 655 285 677 c 3
 285 713 318 729 338 729 c 2
 526 729 l 2
 549 729 565 713 565 691 c 3
EndSplineSet
EndChar

StartChar: K
Encoding: 75 75 24
Width: 658
GlyphClass: 2
Flags: W
HStem: -7 21G<116.5 140.5 571.5 588> 709 20G<231.5 255.5 668 685.5>
LayerCount: 2
Fore
SplineSet
229 345 m 1
 639 715 l 2
 648 724 662 729 674 729 c 3
 697 729 713 714 713 692 c 3
 713 677 704 661 695 653 c 2
 402 389 l 1
 624 67 l 2
 628 61 631 54 631 46 c 3
 631 12 598 -7 578 -7 c 3
 565 -7 553 -1 546 9 c 2
 329 323 l 1
 208 215 l 1
 180 38 l 2
 176 13 153 -7 128 -7 c 7
 105 -7 89 9 89 31 c 7
 89 41 192 684 192 684 c 2
 196 709 219 729 244 729 c 3
 267 729 283 713 283 691 c 3
 283 677 229 345 229 345 c 1
EndSplineSet
EndChar

StartChar: L
Encoding: 76 76 25
Width: 555
GlyphClass: 2
Flags: W
HStem: -0 90<188 542.761>
LayerCount: 2
Fore
SplineSet
283 688 m 0
 283 686 282 683 282 681 c 2
 188 90 l 1
 514 90 l 2
 537 90 553 74 553 52 c 7
 553 24 528 0 500 -0 c 2
 129 -0 l 2
 106 0 90 16 90 38 c 0
 90 40 91 43 91 45 c 2
 192 681 l 2
 196 706 219 726 244 726 c 3
 267 726 283 710 283 688 c 0
EndSplineSet
EndChar

StartChar: M
Encoding: 77 77 26
Width: 881
GlyphClass: 2
Flags: W
HStem: -7 21G<118.5 142.5 738.5 762.5> 709 20G<233.5 253.5 858.5 877.5>
LayerCount: 2
Fore
SplineSet
493 327 m 1
 826 710 l 2
 836 721 851 729 866 729 c 7
 889 729 905 713 905 691 c 7
 905 689 904 686 904 684 c 2
 802 38 l 2
 798 13 775 -7 750 -7 c 3
 727 -7 711 9 711 31 c 3
 711 33 712 36 712 38 c 2
 792 544 l 1
 513 224 l 2
 503 213 488 205 473 205 c 3
 458 205 445 213 439 224 c 2
 262 544 l 1
 182 38 l 2
 178 13 155 -7 130 -7 c 3
 107 -7 91 9 91 31 c 3
 91 33 92 36 92 38 c 2
 194 684 l 2
 198 709 221 729 246 729 c 3
 261 729 274 721 280 710 c 2
 493 327 l 1
EndSplineSet
EndChar

StartChar: N
Encoding: 78 78 27
Width: 760
GlyphClass: 2
Flags: W
HStem: -7 21G<116.5 140.5 624 643> 709 20G<232 251 734.5 758.5>
LayerCount: 2
Fore
SplineSet
747 729 m 3
 770 729 786 713 786 691 c 0
 786 689 785 686 785 684 c 2
 683 38 l 2
 679 13 655 -7 631 -7 c 7
 617 -7 605 -1 598 10 c 2
 262 553 l 1
 180 38 l 2
 176 13 153 -7 128 -7 c 7
 105 -7 89 9 89 31 c 0
 89 33 90 36 90 38 c 2
 192 684 l 2
 196 710 220 729 244 729 c 3
 258 729 271 723 278 712 c 2
 614 169 l 1
 695 684 l 2
 699 709 722 729 747 729 c 3
EndSplineSet
EndChar

StartChar: O
Encoding: 79 79 29
Width: 787
GlyphClass: 2
Flags: W
HStem: -9 90<301.993 511.452> 641 90<390.548 600.007>
VStem: 110 91<185.608 423.202> 701 91<298.798 536.392>
LayerCount: 2
Fore
SplineSet
510 731 m 7
 688 731 792 620 792 442 c 7
 792 143 586 -9 392 -9 c 7
 214 -9 110 102 110 280 c 7
 110 579 316 731 510 731 c 7
406 81 m 7
 601 81 701 265 701 426 c 7
 701 536 650 641 496 641 c 7
 301 641 201 457 201 296 c 7
 201 186 252 81 406 81 c 7
EndSplineSet
Substitution2: "Single Substitution lookup 29 subtable" ordmasculine
Substitution2: "'aalt' Activar todas las variantes lookup 0 subtable" ordmasculine
EndChar

StartChar: Otilde
Encoding: 213 213 34
Width: 787
GlyphClass: 2
Flags: W
HStem: -9 90<301.993 511.452> 641 90<390.548 600.007> 801 70<560.926 660.226> 873 70<391.774 491.074>
VStem: 110 91<185.608 423.202> 308 68<797.487 857.781> 676 68<886.219 946.513> 701 91<298.798 536.392>
LayerCount: 2
Fore
SplineSet
709 949 m 7xfe
 728 949 744 933 744 914 c 7
 744 890 710 801 617 801 c 7
 570 801 543 822 507 842 c 4
 483 855 459 873 435 873 c 7
 403 873 386 850 376 819 c 4
 372 805 358 795 343 795 c 7
 324 795 308 811 308 830 c 7
 308 854 342 943 435 943 c 7
 482 943 509 922 545 902 c 4
 569 889 593 871 617 871 c 7
 649 871 666 894 676 925 c 4
 680 939 694 949 709 949 c 7xfe
EndSplineSet
Refer: 29 79 N 1 0 0 1 0 0 2
EndChar

StartChar: P
Encoding: 80 80 35
Width: 614
GlyphClass: 2
Flags: W
HStem: -7 21G<116.5 140.5> 274 90<232 493.875> 632 90<274 530.62>
VStem: 90 90<3.22827 83.35> 575 91<439.103 592.194>
LayerCount: 2
Fore
SplineSet
666 543 m 3
 666 381 548 274 376 274 c 2
 217 274 l 1
 180 38 l 2
 176 13 153 -7 128 -7 c 7
 105 -7 90 9 90 31 c 7
 90 33 90 36 90 38 c 2
 191 677 l 2
 195 702 218 722 243 722 c 2
 447 722 l 2
 576 722 666 666 666 543 c 3
232 364 m 1
 391 364 l 2
 515 364 575 430 575 527 c 3
 575 612 505 632 433 632 c 2
 274 632 l 1
 232 364 l 1
EndSplineSet
EndChar

StartChar: Q
Encoding: 81 81 36
Width: 787
GlyphClass: 2
Flags: W
HStem: -9 90<301.947 484.844> 641 90<390.494 600.007>
VStem: 109 92<185.608 423.202> 701 91<295.133 536.392>
LayerCount: 2
Fore
SplineSet
510 731 m 3
 688 731 792 620 792 442 c 3
 792 260 717 133 614 61 c 1
 680 -56 l 2
 683 -61 686 -69 686 -76 c 7
 686 -101 662 -127 633 -127 c 7
 618 -127 605 -119 599 -108 c 2
 529 16 l 1
 485 -1 438 -9 392 -9 c 3
 214 -9 109 102 109 280 c 3
 109 579 316 731 510 731 c 3
496 641 m 3
 301 641 201 457 201 296 c 3
 201 186 252 81 406 81 c 3
 435 81 461 86 486 93 c 1
 410 227 l 2
 407 232 404 240 404 247 c 3
 404 273 428 298 458 298 c 3
 473 298 485 290 491 279 c 2
 571 137 l 1
 657 204 701 320 701 426 c 3
 701 536 650 641 496 641 c 3
EndSplineSet
EndChar

StartChar: R
Encoding: 82 82 37
Width: 649
GlyphClass: 2
Flags: W
HStem: -7 21G<116.5 140.5 544.5 564> 274 90<232 418.343> 632 90<274 530.759>
VStem: 517 88<3.73071 72.8369> 575 92<439.753 592.194>
LayerCount: 2
Fore
SplineSet
667 543 m 3xe8
 667 411 590 335 512 300 c 1
 512 300 573 139 603 59 c 0
 605 55 605 49 605 44 c 3
 605 13 575 -7 553 -7 c 3
 536 -7 522 3 517 17 c 0xf0
 484 103 419 276 419 276 c 1
 405 275 390 274 376 274 c 2
 217 274 l 1
 180 38 l 2
 176 13 153 -7 128 -7 c 7
 105 -7 89 9 89 31 c 7
 89 33 90 36 90 38 c 2
 191 677 l 2
 195 702 218 722 243 722 c 2
 447 722 l 2
 576 722 667 666 667 543 c 3xe8
232 364 m 1
 391 364 l 2
 508 364 575 423 575 527 c 3xe8
 575 612 505 632 433 632 c 2
 274 632 l 1
 232 364 l 1
EndSplineSet
EndChar

StartChar: S
Encoding: 83 83 38
Width: 604
GlyphClass: 2
Flags: W
HStem: -9 90<206.102 418.259> 641 90<308.809 516.578>
VStem: 139 92<455.095 575.315> 503 92<148.309 265.328>
LayerCount: 2
Fore
SplineSet
645 614 m 3
 645 582 622 562 592 562 c 3
 579 562 568 567 561 576 c 0
 539 605 515 641 404 641 c 3
 310 641 231 588 231 509 c 3
 231 449 293 417 374 405 c 0
 483 389 595 346 595 230 c 3
 595 69 436 -9 301 -9 c 3
 171 -9 109 48 71 93 c 0
 66 99 62 109 62 118 c 7
 62 152 90 170 115 170 c 7
 127 170 138 165 145 157 c 0
 180 116 209 81 315 81 c 3
 410 81 503 130 503 213 c 3
 503 286 410 306 344 317 c 0
 229 336 139 388 139 492 c 3
 139 643 279 731 418 731 c 3
 452 731 506 726 554 704 c 0
 602 682 645 641 645 614 c 3
EndSplineSet
EndChar

StartChar: T
Encoding: 84 84 39
Width: 572
GlyphClass: 2
Flags: W
HStem: -7 21G<273.5 297.5> 632 90<112.239 341 431 673.761>
LayerCount: 2
Fore
SplineSet
645 722 m 2
 668 722 684 706 684 684 c 3
 684 652 654 632 631 632 c 2
 431 632 l 1
 337 38 l 2
 333 13 310 -7 285 -7 c 7
 262 -7 246 9 246 31 c 7
 246 33 247 36 247 38 c 2
 341 632 l 1
 141 632 l 2
 118 632 102 648 102 670 c 3
 102 698 127 722 155 722 c 2
 645 722 l 2
EndSplineSet
EndChar

StartChar: U
Encoding: 85 85 40
Width: 728
GlyphClass: 2
Flags: W
HStem: -9 90<287.677 471.11> 709 20G<226.5 250.5 706.5 730.5>
VStem: 120 91<158.905 399.772> 187 91<552.438 718.772>
LayerCount: 2
Fore
SplineSet
278 691 m 3xd0
 278 689 277 686 277 684 c 0
 252 529 211 262 211 247 c 3
 211 156 267 81 377 81 c 3
 501 81 587 178 604 284 c 2
 667 684 l 2
 671 709 694 729 719 729 c 7
 742 729 758 713 758 691 c 7
 758 689 757 686 757 684 c 2
 694 284 l 2
 671 135 536 -9 363 -9 c 3
 208 -9 120 106 120 237 c 3xe0
 120 275 164 536 187 684 c 0
 191 709 214 729 239 729 c 3
 262 729 278 713 278 691 c 3xd0
EndSplineSet
EndChar

StartChar: V
Encoding: 86 86 45
Width: 673
GlyphClass: 2
Flags: W
HStem: -8 21G<326.5 345.5> -8 21G<326.5 345.5> 709 20G<164.5 186.5 718.5 740.5>
LayerCount: 2
Fore
SplineSet
214 702 m 2xa0
 361 152 l 1
 683 702 l 2
 693 718 709 729 728 729 c 7
 753 729 766 710 766 690 c 7
 766 682 764 673 760 666 c 2
 382 19 l 2
 372 3 355 -8 336 -8 c 3
 317 -8 303 3 299 19 c 2
 125 666 l 2
 124 668 124 672 124 675 c 3
 124 709 152 729 177 729 c 3
 196 729 210 718 214 702 c 2xa0
EndSplineSet
EndChar

StartChar: W
Encoding: 87 87 46
Width: 1040
GlyphClass: 2
Flags: W
LayerCount: 2
Fore
SplineSet
563 533 m 2
 572 548 591 559 609 559 c 3
 627 559 640 548 645 533 c 2
 756 164 l 1
 1021 702 l 2
 1030 720 1049 733 1069 733 c 3
 1094 733 1106 713 1106 694 c 3
 1106 684 1105 679 1102 674 c 2
 783 28 l 2
 774 10 756 -3 736 -3 c 7
 718 -3 704 7 699 23 c 2
 584 406 l 1
 349 23 l 2
 339 7 322 -3 304 -3 c 7
 284 -3 268 10 265 28 c 2
 152 674 l 2
 152 676 151 679 151 681 c 3
 151 709 177 733 204 733 c 3
 224 733 238 720 241 702 c 2
 336 164 l 1
 563 533 l 2
EndSplineSet
EndChar

StartChar: X
Encoding: 88 88 47
Width: 656
GlyphClass: 2
Flags: W
HStem: -7 21G<72.5 91.5 562.5 580.5> 709 20G<185.5 207.5 678.5 697.5>
LayerCount: 2
Fore
SplineSet
200 729 m 3
 215 729 228 722 234 711 c 2
 397 436 l 1
 648 711 l 2
 658 722 671 729 686 729 c 3
 709 729 725 713 725 691 c 3
 725 678 718 665 711 657 c 2
 441 361 l 1
 617 65 l 2
 621 59 623 53 623 46 c 3
 623 10 591 -7 570 -7 c 3
 555 -7 543 0 537 11 c 2
 373 286 l 1
 123 11 l 2
 113 0 99 -7 84 -7 c 7
 61 -7 45 9 45 31 c 7
 45 44 52 57 59 65 c 2
 329 361 l 1
 153 657 l 2
 149 663 147 669 147 676 c 3
 147 704 171 729 200 729 c 3
EndSplineSet
EndChar

StartChar: Y
Encoding: 89 89 48
Width: 620
GlyphClass: 2
Flags: W
HStem: -7 21G<298.5 322.5> 709 20G<168.5 189.5 660.5 679.5>
LayerCount: 2
Fore
SplineSet
216 711 m 2
 379 436 l 1
 630 711 l 2
 640 722 653 729 668 729 c 3
 691 729 707 713 707 691 c 3
 707 677 700 665 693 657 c 2
 411 347 l 1
 362 38 l 2
 358 13 335 -7 310 -7 c 7
 287 -7 271 9 271 31 c 7
 271 33 272 36 272 38 c 2
 321 345 l 1
 135 657 l 2
 131 663 129 669 129 676 c 3
 129 705 155 729 182 729 c 3
 197 729 210 722 216 711 c 2
EndSplineSet
EndChar

StartChar: Z
Encoding: 90 90 49
Width: 610
GlyphClass: 2
Flags: W
HStem: -0 90<187 594.17> 632 90<177.651 544>
LayerCount: 2
Fore
SplineSet
220 722 m 2
 645 722 l 2
 668 722 684 706 684 684 c 3
 684 672 678 659 671 651 c 2
 187 90 l 1
 565 90 l 2
 588 90 604 74 604 52 c 7
 604 17 571 0 551 -0 c 2
 86 -0 l 2
 63 0 47 16 47 38 c 3
 47 50 53 63 60 71 c 2
 544 632 l 1
 206 632 l 2
 183 632 167 648 167 670 c 3
 167 704 200 722 220 722 c 2
EndSplineSet
EndChar

StartChar: a
Encoding: 97 97 50
Width: 578
GlyphClass: 2
Flags: W
HStem: -9 90<228.617 382.883> 419 90<274.865 427.621> 479 20G<555 580.5>
VStem: 79 91<141.889 307.285> 487 121<229.5 472> 516 92<454.094 488.25>
LayerCount: 2
Fore
SplineSet
516 450 m 1xd4
 518 474 541 499 569 499 c 7
 592 499 608 483 608 461 c 7xb8
 608 459 607 456 607 454 c 2
 542 46 l 2
 538 21 515 1 490 1 c 3
 467 1 451 17 451 39 c 3
 451 43 452 46 453 50 c 1
 405 13 348 -9 288 -9 c 3
 164 -9 79 86 79 208 c 3
 79 378 227 509 370 509 c 3
 430 509 480 487 516 450 c 1xd4
355 419 m 3xd8
 248 419 170 315 170 221 c 3
 170 140 226 81 302 81 c 3
 406 81 487 180 487 279 c 3
 487 360 430 419 355 419 c 3xd8
EndSplineSet
Substitution2: "'ss01' Estilo 1 lookup 35 subtable" a.ss01
Substitution2: "'salt' Alternativas estil+AO0A-sticas lookup 34 subtable" a.ss01
Substitution2: "Single Substitution lookup 29 subtable" ordfeminine
AlternateSubs2: "'aalt' Activar todas las variantes lookup 1 subtable" a.ss01 ordfeminine
EndChar

StartChar: atilde
Encoding: 227 227 55
Width: 578
GlyphClass: 2
Flags: W
HStem: -9 90<228.617 382.883> 419 90<274.865 427.621> 479 20G<555 580.5> 607 70<423.185 508.396> 679 70<279.604 364.815>
VStem: 79 91<141.889 307.285> 209 58<602.015 668.249> 487 121<229.5 472> 516 92<454.094 488.25> 521 58<687.751 753.985>
LayerCount: 2
Fore
SplineSet
550 755 m 7x9e40
 566 755 579 739 579 720 c 7
 579 696 551 607 472 607 c 7
 432 607 409 628 378 648 c 4
 358 661 336 679 316 679 c 7
 289 679 275 656 267 625 c 4
 263 611 251 601 238 601 c 7
 222 601 209 617 209 636 c 7
 209 660 237 749 316 749 c 7
 356 749 379 728 410 708 c 4
 430 695 452 677 472 677 c 7
 499 677 513 700 521 731 c 4
 525 745 537 755 550 755 c 7x9e40
EndSplineSet
Refer: 50 97 N 1 0 0 1 0 0 2
Substitution2: "'ss01' Estilo 1 lookup 35 subtable" atilde.ss01
Substitution2: "'salt' Alternativas estil+AO0A-sticas lookup 34 subtable" atilde.ss01
Substitution2: "'aalt' Activar todas las variantes lookup 0 subtable" atilde.ss01
EndChar

StartChar: b
Encoding: 98 98 56
Width: 605
GlyphClass: 2
Flags: W
HStem: -9 90<258.679 409.857> 419 90<303.36 453.357>
VStem: 78 123<18 267> 271 1<684.094 690.906> 513 91<193.101 357.925>
LayerCount: 2
Fore
SplineSet
272 691 m 3
 272 689 271 686 271 684 c 2
 234 451 l 1
 282 487 339 509 398 509 c 3
 520 509 604 413 604 292 c 3
 604 124 457 -9 316 -9 c 3
 257 -9 207 13 171 49 c 1
 169 36 l 2
 165 11 142 -9 117 -9 c 7
 94 -9 78 7 78 29 c 3
 78 31 79 34 79 36 c 2
 181 684 l 2
 185 709 208 729 233 729 c 3
 256 729 272 713 272 691 c 3
201 220 m 3
 201 139 255 81 330 81 c 3
 437 81 513 185 513 279 c 3
 513 360 458 419 383 419 c 3
 279 419 201 314 201 220 c 3
EndSplineSet
EndChar

StartChar: c
Encoding: 99 99 57
Width: 478
GlyphClass: 2
Flags: W
HStem: -9 90<220.09 380.273> 419 90<265.512 428.092>
VStem: 66 91<143.913 306.855>
LayerCount: 2
Fore
SplineSet
433 35 m 0
 388 7 336 -9 283 -9 c 3
 155 -9 66 86 66 209 c 3
 66 381 224 509 365 509 c 3
 399 509 515 489 515 433 c 3
 515 399 483 382 463 382 c 3
 454 382 445 385 439 390 c 0
 416 408 384 419 350 419 c 3
 242 419 157 318 157 222 c 3
 157 141 215 81 297 81 c 3
 375 81 385 118 421 118 c 7
 444 118 460 102 460 80 c 7
 460 63 449 45 433 35 c 0
EndSplineSet
EndChar

StartChar: d
Encoding: 100 100 59
Width: 605
GlyphClass: 2
Flags: W
HStem: -9 90<227.752 379.298> 419 90<272.92 424.831> 709 20G<588.5 612.5>
VStem: 80 91<141.733 311.092> 446 1<29.0945 35.9055>
LayerCount: 2
Fore
SplineSet
640 691 m 7
 640 689 639 686 639 684 c 2
 537 36 l 2
 533 11 510 -9 485 -9 c 3
 462 -9 446 7 446 29 c 3
 446 31 447 34 447 36 c 2
 449 49 l 1
 401 13 345 -9 286 -9 c 3
 164 -9 80 87 80 208 c 3
 80 371 224 509 368 509 c 3
 427 509 476 487 512 451 c 1
 549 684 l 2
 553 709 576 729 601 729 c 7
 624 729 640 713 640 691 c 7
171 220 m 3
 171 139 225 81 300 81 c 3
 401 81 483 185 483 279 c 3
 483 360 428 419 353 419 c 3
 245 419 171 314 171 220 c 3
EndSplineSet
EndChar

StartChar: e
Encoding: 101 101 60
Width: 549
GlyphClass: 2
Flags: W
HStem: -9 90<226.981 410.397> 220 90<190 462> 419 90<273.784 418.851>
VStem: 78 91<142.671 215.985> 462 92<310 372.433>
LayerCount: 2
Fore
SplineSet
498 220 m 2
 169 220 l 1
 169 140 224 81 300 81 c 3
 382 81 405 96 438 122 c 0
 447 129 458 133 469 133 c 7
 493 133 508 117 508 96 c 7
 508 78 498 62 487 54 c 0
 444 21 383 -9 286 -9 c 3
 163 -9 78 86 78 208 c 3
 78 379 225 509 368 509 c 3
 496 509 554 415 554 311 c 3
 554 261 542 220 498 220 c 2
190 310 m 1
 462 310 l 1
 458 374 415 419 353 419 c 3
 287 419 222 375 190 310 c 1
EndSplineSet
EndChar

StartChar: f
Encoding: 102 102 65
Width: 355
GlyphClass: 2
Flags: W
HStem: -8 21G<138.5 162.5> -8 21G<138.5 162.5> 413 90<85.6509 171 276 404.761> 635 90<307.652 443.52>
LayerCount: 2
Fore
SplineSet
128 503 m 2xb0
 186 503 l 1
 196 568 l 2
 209 654 281 725 380 725 c 3
 417 725 480 711 480 669 c 3
 480 648 465 616 427 616 c 3
 400 616 405 635 366 635 c 3
 324 635 293 611 286 568 c 2
 276 503 l 1
 276 503 343 503 376 503 c 3
 399 503 415 487 415 465 c 3
 415 430 382 413 361 413 c 2
 261 413 l 1
 202 37 l 2
 198 12 175 -8 150 -8 c 3
 127 -8 111 8 111 30 c 3
 111 32 112 35 112 37 c 2
 171 413 l 1
 113 413 l 2
 91 413 75 429 75 450 c 3
 75 486 108 503 128 503 c 2xb0
EndSplineSet
EndChar

StartChar: g
Encoding: 103 103 66
Width: 608
GlyphClass: 2
Flags: W
HStem: -194 90<157.639 385.74> -10 90<231.547 382.682> 419 90<275.594 428.474>
VStem: 79 91<141.011 308.193> 487 122<231 470>
LayerCount: 2
Fore
SplineSet
552 98 m 2
 528 -52 481 -194 276 -194 c 3
 196 -194 127 -190 71 -138 c 0
 64 -131 59 -121 59 -110 c 7
 59 -80 85 -58 112 -58 c 7
 123 -58 131 -62 138 -68 c 0
 175 -101 210 -104 295 -104 c 3
 395 -104 424 -68 453 48 c 1
 405 12 347 -10 288 -10 c 3
 164 -10 79 85 79 207 c 3
 79 384 241 509 371 509 c 3
 431 509 481 487 517 451 c 1
 521 477 545 497 570 497 c 3
 593 497 609 481 609 459 c 3
 609 457 608 454 608 452 c 2
 552 98 l 2
487 278 m 3
 487 359 431 419 356 419 c 3
 251 419 170 315 170 221 c 3
 170 139 227 80 303 80 c 3
 405 80 487 184 487 278 c 3
EndSplineSet
EndChar

StartChar: h
Encoding: 104 104 67
Width: 589
GlyphClass: 2
Flags: W
HStem: -7 21G<103.5 127.5 460.5 484.5> 421 90<306.305 449.38>
VStem: 269 1<684.094 690.906> 475 90<214.587 393.305>
LayerCount: 2
Fore
SplineSet
76 31 m 3
 76 33 77 36 77 38 c 2
 179 684 l 2
 183 709 206 729 231 729 c 3
 254 729 270 713 270 691 c 3
 270 689 269 686 269 684 c 2
 232 449 l 1
 278 489 334 511 395 511 c 3
 525 511 565 437 565 335 c 7
 565 309 563 281 558 252 c 2
 524 38 l 2
 520 13 497 -7 472 -7 c 3
 449 -7 433 9 433 31 c 3
 433 33 434 36 434 38 c 2
 468 252 l 2
 472 274 475 298 475 321 c 7
 475 374 457 421 381 421 c 3
 271 421 208 303 191 192 c 2
 167 38 l 2
 163 13 140 -7 115 -7 c 3
 92 -7 76 9 76 31 c 3
EndSplineSet
EndChar

StartChar: dotlessi
Encoding: 305 305 69
Width: 248
GlyphClass: 2
Flags: W
HStem: -6 21G<111 134.5> 485 20G<190.5 214.5>
VStem: 84 1<31.0945 38.8594> 242 1<460.094 466.906>
LayerCount: 2
Fore
SplineSet
175 39 m 2
 171 14 147 -6 122 -6 c 0
 100 -6 84 10 84 31 c 0
 84 33 85 36 85 39 c 2
 152 460 l 2
 156 485 178 505 203 505 c 0
 226 505 243 489 243 467 c 0
 243 465 242 462 242 460 c 2
 175 39 l 2
EndSplineSet
EndChar

StartChar: j
Encoding: 106 106 74
Width: 251
Flags: W
HStem: -195 90<-70.8302 50.8751> 487 20G<202.5 226.5> 606 130<191.246 290.184>
VStem: 175 131<622.85 719.15>
LayerCount: 2
Fore
SplineSet
215 507 m 3
 238 507 254 491 254 469 c 3
 254 467 253 464 253 462 c 2
 184 23 l 2
 165 -99 114 -195 -43 -195 c 3
 -66 -195 -82 -179 -82 -157 c 3
 -82 -155 -81 -152 -81 -150 c 0
 -77 -125 -54 -105 -29 -105 c 7
 54 -105 78 -79 94 23 c 2
 163 462 l 2
 167 487 190 507 215 507 c 3
EndSplineSet
Refer: 133 46 N 1 0 0 1 110 610 2
Substitution2: "Single Substitution lookup 4 subtable" uni0237
Substitution2: "Single Substitution lookup 3 subtable" uni0237
EndChar

StartChar: k
Encoding: 107 107 75
Width: 528
GlyphClass: 2
Flags: W
HStem: -7 21G<105.5 129.5 444.5 463.5> 491 20G<503 521> 709 20G<220.5 244.5>
VStem: 271 1<684.094 690.906>
LayerCount: 2
Fore
SplineSet
528 433 m 2
 330 270 l 1
 495 70 l 2
 500 63 504 54 504 45 c 7
 504 14 476 -7 451 -7 c 7
 438 -7 428 -2 421 6 c 2
 254 208 l 1
 187 152 l 1
 169 38 l 2
 165 13 142 -7 117 -7 c 3
 94 -7 78 9 78 31 c 3
 78 33 79 36 79 38 c 2
 181 684 l 2
 185 709 208 729 233 729 c 3
 256 729 272 713 272 691 c 3
 272 689 271 686 271 684 c 2
 207 276 l 1
 476 499 l 2
 485 507 497 511 509 511 c 3
 533 511 548 495 548 474 c 3
 548 459 541 444 528 433 c 2
EndSplineSet
EndChar

StartChar: l
Encoding: 108 108 76
Width: 313
GlyphClass: 2
Flags: W
HStem: -9 90<204.096 308.17> 709 20G<220.5 244.5>
VStem: 104 87<91.2592 317.719> 271 1<684.094 690.906>
LayerCount: 2
Fore
SplineSet
318 43 m 7
 318 8 285 -9 265 -9 c 3
 141 -9 104 38 104 139 c 3
 104 183 111 236 121 300 c 2
 181 684 l 2
 185 709 208 729 233 729 c 3
 256 729 272 713 272 691 c 3
 272 689 271 686 271 684 c 2
 209 293 l 2
 198 225 191 178 191 146 c 3
 191 90 214 81 279 81 c 3
 302 81 318 65 318 43 c 7
EndSplineSet
Substitution2: "'ss02' Estilo 2 lookup 36 subtable" l.ss02
Substitution2: "'aalt' Activar todas las variantes lookup 0 subtable" l.ss02
EndChar

StartChar: m
Encoding: 109 109 77
Width: 886
GlyphClass: 2
Flags: W
HStem: -9 21G<105.5 129.5 430.5 454.5 755.5 779.5> 419 88<312.828 435.255 624.715 761.997>
VStem: 236 1<462.094 468.906> 728 1<29.0945 35.9055> 774 89<178.828 408.401>
LayerCount: 2
Fore
SplineSet
203 250 m 2
 169 36 l 2
 165 11 142 -9 117 -9 c 3
 94 -9 78 7 78 29 c 3
 78 31 79 34 79 36 c 2
 146 462 l 2
 150 487 173 507 198 507 c 3
 221 507 237 491 237 469 c 3
 237 467 236 464 236 462 c 2
 229 415 l 1
 268 467 338 509 405 509 c 3
 463 509 520 492 540 430 c 1
 587 476 647 509 730 509 c 7
 832 509 863 447 863 357 c 7
 863 325 859 288 853 250 c 2
 819 36 l 2
 815 11 792 -9 767 -9 c 3
 744 -9 728 7 728 29 c 3
 728 31 729 34 729 36 c 2
 765 263 l 2
 770 294 774 323 774 347 c 7
 774 391 760 419 715 419 c 7
 619 419 544 355 528 252 c 2
 494 36 l 2
 490 12 467 -9 442 -9 c 3
 419 -9 403 7 403 29 c 3
 403 31 404 34 404 36 c 2
 441 273 l 2
 445 298 448 322 448 343 c 3
 448 387 435 419 390 419 c 3
 291 419 218 343 203 250 c 2
EndSplineSet
EndChar

StartChar: n
Encoding: 110 110 78
Width: 589
GlyphClass: 2
Flags: W
HStem: -7 21G<103.5 127.5 460.5 484.5> 421 90<317.621 460.762>
VStem: 234 1<464.141 471.906> 433 1<31.0945 37.9055> 477 89<168.219 404.076>
LayerCount: 2
Fore
SplineSet
469 257 m 2
 473 282 477 310 477 335 c 3
 477 382 463 421 407 421 c 3
 309 421 215 341 201 252 c 2
 167 38 l 2
 163 13 140 -7 115 -7 c 7
 92 -7 76 9 76 31 c 7
 76 33 77 36 77 38 c 2
 144 464 l 2
 148 489 172 509 197 509 c 3
 219 509 235 493 235 472 c 3
 235 470 234 467 234 464 c 2
 231 444 l 1
 281 483 346 511 421 511 c 3
 523 511 566 452 566 343 c 3
 566 316 563 285 558 252 c 2
 524 38 l 2
 520 13 497 -7 472 -7 c 3
 449 -7 433 9 433 31 c 3
 433 33 434 36 434 38 c 2
 469 257 l 2
EndSplineSet
EndChar

StartChar: ntilde
Encoding: 241 241 79
Width: 589
GlyphClass: 2
Flags: W
HStem: -7 21G<103.5 127.5 460.5 484.5> 421 90<317.621 460.762> 607 70<405.185 490.396> 679 70<261.604 346.815>
VStem: 191 58<602.015 668.249> 234 1<464.141 471.906> 433 1<31.0945 37.9055> 477 89<168.219 404.076> 503 58<687.751 753.985>
LayerCount: 2
Fore
SplineSet
532 755 m 7xfa80
 548 755 561 739 561 720 c 7
 561 696 533 607 454 607 c 7
 414 607 391 628 360 648 c 4
 340 661 318 679 298 679 c 7
 271 679 257 656 249 625 c 4
 245 611 233 601 220 601 c 7
 204 601 191 617 191 636 c 7
 191 660 219 749 298 749 c 7
 338 749 361 728 392 708 c 4
 412 695 434 677 454 677 c 7
 481 677 495 700 503 731 c 4
 507 745 519 755 532 755 c 7xfa80
EndSplineSet
Refer: 78 110 N 1 0 0 1 0 0 2
EndChar

StartChar: o
Encoding: 111 111 80
Width: 578
GlyphClass: 2
Flags: W
HStem: -9 90<230.949 379.926> 419 90<277.074 426.051>
VStem: 79 91<142.343 304.882> 487 91<195.118 357.657>
LayerCount: 2
Fore
SplineSet
370 509 m 7
 494 509 578 413 578 291 c 7
 578 106 410 -9 287 -9 c 7
 163 -9 79 87 79 209 c 7
 79 394 247 509 370 509 c 7
355 419 m 7
 254 419 170 315 170 221 c 7
 170 140 227 81 302 81 c 7
 403 81 487 185 487 279 c 7
 487 360 430 419 355 419 c 7
EndSplineSet
Substitution2: "Single Substitution lookup 29 subtable" ordmasculine
Substitution2: "'aalt' Activar todas las variantes lookup 0 subtable" ordmasculine
EndChar

StartChar: otilde
Encoding: 245 245 85
Width: 578
GlyphClass: 2
Flags: W
HStem: -9 90<230.949 379.926> 419 90<277.074 426.051> 607 70<416.185 501.396> 679 70<272.604 357.815>
VStem: 79 91<142.343 304.882> 202 58<602.015 668.249> 487 91<195.118 357.657> 514 58<687.751 753.985>
LayerCount: 2
Fore
SplineSet
543 755 m 7xfd
 559 755 572 739 572 720 c 7
 572 696 544 607 465 607 c 7
 425 607 402 628 371 648 c 4
 351 661 329 679 309 679 c 7
 282 679 268 656 260 625 c 4
 256 611 244 601 231 601 c 7
 215 601 202 617 202 636 c 7
 202 660 230 749 309 749 c 7
 349 749 372 728 403 708 c 4
 423 695 445 677 465 677 c 7
 492 677 506 700 514 731 c 4
 518 745 530 755 543 755 c 7xfd
EndSplineSet
Refer: 80 111 N 1 0 0 1 0 0 2
EndChar

StartChar: p
Encoding: 112 112 86
Width: 605
GlyphClass: 2
Flags: W
HStem: -9 90<258.679 411.817> 419 90<303.578 453.136>
VStem: 236 1<464.141 471.906> 513 91<191.167 357.925>
LayerCount: 2
Fore
SplineSet
49 -153 m 7
 49 -151 50 -148 50 -146 c 2
 146 464 l 2
 150 489 174 509 199 509 c 3
 221 509 237 493 237 472 c 3
 237 470 236 467 236 464 c 2
 234 451 l 1
 282 487 339 509 398 509 c 3
 520 509 604 413 604 292 c 3
 604 114 450 -9 316 -9 c 3
 257 -9 207 13 171 49 c 1
 140 -146 l 2
 136 -171 113 -191 88 -191 c 7
 65 -191 49 -175 49 -153 c 7
513 279 m 3
 513 360 457 419 383 419 c 3
 280 419 201 314 201 220 c 3
 201 139 255 81 330 81 c 3
 438 81 513 185 513 279 c 3
EndSplineSet
EndChar

StartChar: q
Encoding: 113 113 87
Width: 605
GlyphClass: 2
Flags: W
HStem: -9 90<227.752 380.17> 419 90<272.021 424.831>
VStem: 80 91<141.733 307.095> 417 1<-152.906 -146.094> 483 122<232 482.5>
LayerCount: 2
Fore
SplineSet
417 -153 m 7
 417 -151 418 -148 418 -146 c 2
 449 49 l 1
 401 13 345 -9 286 -9 c 3
 164 -9 80 87 80 208 c 3
 80 379 232 509 368 509 c 3
 427 509 476 487 512 451 c 1
 514 464 l 2
 518 489 542 509 567 509 c 3
 589 509 605 493 605 472 c 3
 605 470 604 467 604 464 c 2
 508 -146 l 2
 504 -171 481 -191 456 -191 c 7
 433 -191 417 -175 417 -153 c 7
483 279 m 3
 483 360 428 419 353 419 c 3
 248 419 171 314 171 220 c 3
 171 139 225 81 300 81 c 3
 405 81 483 185 483 279 c 3
EndSplineSet
EndChar

StartChar: r
Encoding: 114 114 88
Width: 381
GlyphClass: 2
Flags: W
HStem: -7 21G<105.5 129.5> 421 90<315.648 442.588>
LayerCount: 2
Fore
SplineSet
453 473 m 3
 453 444 427 421 400 421 c 3
 298 421 216 336 200 233 c 2
 169 38 l 2
 165 13 142 -7 117 -7 c 7
 94 -7 78 9 78 31 c 7
 78 33 79 36 79 38 c 2
 146 464 l 2
 150 489 174 509 199 509 c 3
 221 509 237 493 237 472 c 3
 237 462 235 455 234 446 c 1
 285 487 348 511 414 511 c 3
 437 511 453 495 453 473 c 3
EndSplineSet
EndChar

StartChar: s
Encoding: 115 115 89
Width: 495
GlyphClass: 2
Flags: W
HStem: -9 90<178.804 360.366> 419 90<235.276 399.446>
VStem: 122 91<324.175 395.353> 385 92<106.023 181.013>
LayerCount: 2
Fore
SplineSet
58 96 m 7
 58 131 90 148 111 148 c 7
 123 148 134 143 141 136 c 0
 173 102 201 81 261 81 c 3
 321 81 385 95 385 147 c 3
 385 190 304 205 264 215 c 0
 188 233 122 267 122 346 c 3
 122 472 254 509 334 509 c 3
 389 509 506 474 506 419 c 3
 506 389 477 368 454 368 c 3
 413 368 411 419 319 419 c 3
 273 419 213 401 213 360 c 3
 213 318 258 316 307 301 c 0
 418 267 477 236 477 165 c 3
 477 41 358 -9 247 -9 c 3
 192 -9 58 34 58 96 c 7
EndSplineSet
EndChar

StartChar: t
Encoding: 116 116 90
Width: 373
GlyphClass: 2
Flags: W
HStem: -9 90<233.935 378.588> 409 90<76.2389 169 273 424.03>
VStem: 130 91<96.1248 303.453>
LayerCount: 2
Fore
SplineSet
169 409 m 1
 105 409 l 2
 82 409 66 425 66 447 c 3
 66 475 91 499 119 499 c 2
 183 499 l 1
 201 612 l 2
 205 637 228 657 253 657 c 3
 276 657 292 641 292 619 c 0
 292 617 291 614 291 612 c 2
 273 499 l 1
 396 499 l 2
 419 499 435 483 435 461 c 3
 435 432 407 409 382 409 c 2
 259 409 l 1
 228 216 l 2
 223 188 221 166 221 148 c 7
 221 89 251 81 350 81 c 7
 373 81 389 65 389 43 c 7
 389 15 363 -9 336 -9 c 7
 182 -9 130 29 130 133 c 7
 130 157 133 185 138 216 c 2
 169 409 l 1
EndSplineSet
EndChar

StartChar: u
Encoding: 117 117 91
Width: 582
GlyphClass: 2
Flags: W
HStem: -7 88<208.294 359.675> 489 20G<184.5 208 535.5 559>
VStem: 103 89<97.4744 337.164> 234 1<464.141 471.906>
LayerCount: 2
Fore
SplineSet
462 250 m 2
 495 464 l 2
 499 489 523 509 548 509 c 3
 570 509 586 493 586 472 c 3
 586 470 585 467 585 464 c 2
 518 38 l 2
 514 13 491 -7 466 -7 c 7
 443 -7 427 9 427 31 c 7
 427 40 430 49 431 58 c 1
 381 19 323 -9 248 -9 c 3
 146 -9 103 50 103 159 c 3
 103 186 106 217 111 250 c 2
 144 464 l 2
 148 489 172 509 197 509 c 3
 219 509 235 493 235 472 c 3
 235 470 234 467 234 464 c 2
 200 245 l 2
 195 216 192 189 192 166 c 3
 192 113 209 81 262 81 c 3
 360 81 442 119 462 250 c 2
EndSplineSet
EndChar

StartChar: v
Encoding: 118 118 96
Width: 532
GlyphClass: 2
Flags: W
HStem: -7 21G<256 274> 487 20G<137 159 534 554.5>
LayerCount: 2
Fore
SplineSet
150 507 m 3
 168 507 182 496 187 481 c 2
 289 145 l 1
 498 481 l 2
 507 496 525 507 543 507 c 3
 566 507 582 490 582 469 c 3
 582 458 578 450 574 443 c 2
 310 19 l 2
 301 4 283 -7 265 -7 c 7
 247 -7 234 4 229 19 c 2
 99 443 l 2
 98 447 97 450 97 454 c 3
 97 483 124 507 150 507 c 3
EndSplineSet
EndChar

StartChar: w
Encoding: 119 119 97
Width: 866
GlyphClass: 2
Flags: W
HStem: -7 21G<246.5 264.5 599.5 617.5> 487 20G<148 169.5 855.5 876>
LayerCount: 2
Fore
SplineSet
654 21 m 2
 645 5 627 -7 608 -7 c 3
 591 -7 577 3 572 17 c 2
 476 273 l 1
 299 17 l 2
 289 3 273 -7 256 -7 c 7
 237 -7 222 5 218 21 c 2
 109 445 l 2
 108 449 108 453 108 457 c 3
 108 484 136 507 160 507 c 3
 179 507 194 495 198 479 c 2
 285 143 l 1
 455 390 l 2
 465 404 482 414 499 414 c 3
 516 414 530 404 535 390 c 2
 627 143 l 1
 820 479 l 2
 829 495 846 507 865 507 c 3
 887 507 905 489 905 468 c 3
 905 459 901 451 897 445 c 2
 654 21 l 2
EndSplineSet
EndChar

StartChar: x
Encoding: 120 120 98
Width: 546
GlyphClass: 2
Flags: W
HStem: -6 21G<77 96 448 467.5> 492 20G<169 190 517 535.5>
LayerCount: 2
Fore
SplineSet
215 496 m 2
 325 330 l 1
 488 496 l 2
 498 506 510 512 524 512 c 3
 547 512 564 496 564 474 c 3
 564 460 555 447 547 438 c 2
 372 260 l 1
 501 68 l 2
 505 62 508 54 508 46 c 7
 508 16 480 -6 455 -6 c 7
 441 -6 429 0 423 10 c 2
 303 189 l 1
 126 10 l 2
 116 0 103 -6 89 -6 c 3
 65 -6 50 12 50 32 c 3
 50 46 58 60 66 68 c 2
 255 260 l 1
 136 438 l 2
 132 444 130 451 130 459 c 3
 130 489 155 512 183 512 c 3
 197 512 209 506 215 496 c 2
EndSplineSet
EndChar

StartChar: y
Encoding: 121 121 99
Width: 532
GlyphClass: 2
Flags: W
HStem: 487 20G<139 158 534 555.5>
LayerCount: 2
Fore
SplineSet
292 163 m 1
 498 482 l 2
 507 497 525 507 543 507 c 3
 568 507 581 488 581 468 c 3
 581 458 578 449 573 442 c 2
 179 -165 l 2
 169 -180 152 -190 134 -190 c 7
 109 -190 97 -172 97 -152 c 7
 97 -140 100 -133 104 -126 c 2
 226 61 l 1
 99 442 l 2
 98 446 97 451 97 456 c 3
 97 491 129 507 149 507 c 3
 167 507 180 497 185 482 c 2
 292 163 l 1
EndSplineSet
EndChar

StartChar: z
Encoding: 122 122 100
Width: 479
GlyphClass: 2
Flags: W
HStem: -0 90<196 456.761> 410 90<135.651 380>
LayerCount: 2
Fore
SplineSet
178 500 m 2
 485 500 l 2
 508 500 524 484 524 462 c 3
 524 449 517 435 510 428 c 2
 196 90 l 1
 428 90 l 2
 451 90 467 74 467 52 c 7
 467 24 443 0 414 -0 c 2
 91 -0 l 2
 68 0 52 16 52 38 c 3
 52 52 59 65 66 72 c 2
 380 410 l 1
 164 410 l 2
 141 410 125 426 125 448 c 3
 125 482 158 500 178 500 c 2
EndSplineSet
EndChar

StartChar: zero
Encoding: 48 48 103
Width: 614
Flags: W
HStem: -9 92<251.566 394.267> 639 92<333.733 476.434>
VStem: 98 93<155.106 426.278> 537 93<295.722 566.894>
LayerCount: 2
Fore
SplineSet
305 -9 m 7
 153 -9 98 121 98 264 c 7
 98 497 226 731 423 731 c 7
 575 731 630 601 630 458 c 7
 630 225 502 -9 305 -9 c 7
408 639 m 7
 256 639 191 411 191 276 c 7
 191 183 218 83 320 83 c 7
 472 83 537 311 537 446 c 7
 537 539 510 639 408 639 c 7
EndSplineSet
Substitution2: "'onum' Cifras estilo antiguo lookup 31 subtable" zero.tosf
Substitution2: "'frac' Fracciones lookup 24 subtable" zero.numr
Substitution2: "'dnom' Denominadores lookup 22 subtable" zero.dnom
Substitution2: "'numr' Numeradores lookup 21 subtable" zero.numr
Substitution2: "'sups' Supra+AO0A-ndice lookup 20 subtable" uni2070
Substitution2: "'sinf' +AM0A-ndices cient+AO0A-ficos lookup 19 subtable" uni2080
Substitution2: "'subs' Sub+AO0A-ndice lookup 18 subtable" uni2080
AlternateSubs2: "'aalt' Activar todas las variantes lookup 1 subtable" zero.tosf uni2080 zero.dnom zero.numr uni2070
EndChar

StartChar: one
Encoding: 49 49 104
Width: 614
Flags: W
HStem: 0 92<150.992 291 384 508.125> 709 20G<433.5 449.5>
LayerCount: 2
Fore
SplineSet
384 92 m 1
 480 92 l 2
 503 92 519 76 519 54 c 7
 519 20 489 0 465 0 c 2
 180 0 l 2
 157 0 140 17 140 39 c 7
 140 74 174 92 195 92 c 2
 291 92 l 1
 371 599 l 1
 259 534 l 2
 251 530 242 525 233 525 c 3
 209 525 192 542 192 564 c 3
 192 584 208 602 221 610 c 2
 412 722 l 2
 420 727 429 729 438 729 c 3
 461 729 478 712 478 690 c 3
 478 688 477 686 477 683 c 2
 384 92 l 1
EndSplineSet
Substitution2: "'ss01' Estilo 1 lookup 35 subtable" one.ss01
Substitution2: "'salt' Alternativas estil+AO0A-sticas lookup 34 subtable" one.ss01
Substitution2: "'onum' Cifras estilo antiguo lookup 31 subtable" one.tosf
Substitution2: "'frac' Fracciones lookup 24 subtable" one.numr
Substitution2: "'dnom' Denominadores lookup 22 subtable" one.dnom
Substitution2: "'numr' Numeradores lookup 21 subtable" one.numr
Substitution2: "'sups' Supra+AO0A-ndice lookup 20 subtable" uni00B9
Substitution2: "'sinf' +AM0A-ndices cient+AO0A-ficos lookup 19 subtable" uni2081
Substitution2: "'subs' Sub+AO0A-ndice lookup 18 subtable" uni2081
AlternateSubs2: "'aalt' Activar todas las variantes lookup 1 subtable" one.ss01 one.tosf uni2081 one.dnom one.numr uni00B9
EndChar

StartChar: two
Encoding: 50 50 105
Width: 614
Flags: W
HStem: 0 92<171 555.833> 641 92<325.519 489.887>
VStem: 532 94<487.199 603.097>
LayerCount: 2
Fore
SplineSet
512 0 m 2
 104 0 l 2
 81 0 64 17 64 39 c 3
 64 130 146 242 329 360 c 0
 399 406 532 463 532 543 c 3
 532 608 475 641 410 641 c 3
 356 641 276 604 234 554 c 0
 223 540 209 527 187 527 c 3
 160 527 149 548 149 567 c 3
 149 569 149 571 149 573 c 0
 160 643 320 733 424 733 c 3
 548 733 626 653 626 555 c 3
 626 412 459 340 371 283 c 0
 291 231 207 176 171 92 c 1
 527 92 l 2
 550 92 565 78 565 50 c 7
 565 20 538 0 512 0 c 2
EndSplineSet
Substitution2: "'onum' Cifras estilo antiguo lookup 31 subtable" two.tosf
Substitution2: "'frac' Fracciones lookup 24 subtable" two.numr
Substitution2: "'dnom' Denominadores lookup 22 subtable" two.dnom
Substitution2: "'numr' Numeradores lookup 21 subtable" two.numr
Substitution2: "'sups' Supra+AO0A-ndice lookup 20 subtable" uni00B2
Substitution2: "'sinf' +AM0A-ndices cient+AO0A-ficos lookup 19 subtable" uni2082
Substitution2: "'subs' Sub+AO0A-ndice lookup 18 subtable" uni2082
AlternateSubs2: "'aalt' Activar todas las variantes lookup 1 subtable" two.tosf uni2082 two.dnom two.numr uni00B2
EndChar

StartChar: three
Encoding: 51 51 106
Width: 614
Flags: W
HStem: -9 92<211.169 422.627> 324 92<251.914 447.742> 639 92<298.381 498.762>
VStem: 77 92<117.399 162.13> 497 92<145.146 282.53> 531 94<477.049 607.998>
LayerCount: 2
Fore
SplineSet
295 416 m 3xf8
 368 416 427 419 465 439 c 0
 514 465 531 507 531 554 c 3
 531 630 458 639 389 639 c 3
 337 639 268 606 251 591 c 0
 238 580 224 571 210 571 c 3
 187 571 171 586 171 609 c 3
 171 612 172 614 172 617 c 0
 183 685 337 731 404 731 c 3
 532 731 625 688 625 571 c 3xf4
 625 465 567 408 509 373 c 1
 557 345 589 290 589 225 c 3
 589 53 429 -9 287 -9 c 3
 177 -9 77 58 77 118 c 7
 77 151 103 172 131 172 c 7
 148 172 164 161 169 145 c 0
 176 121 227 83 301 83 c 3
 417 83 497 122 497 219 c 3
 497 254 484 283 454 299 c 0
 417 319 353 324 280 324 c 3
 257 324 242 336 242 365 c 3
 242 395 269 416 295 416 c 3xf8
EndSplineSet
Substitution2: "'onum' Cifras estilo antiguo lookup 31 subtable" three.tosf
Substitution2: "'frac' Fracciones lookup 24 subtable" three.numr
Substitution2: "'dnom' Denominadores lookup 22 subtable" three.dnom
Substitution2: "'numr' Numeradores lookup 21 subtable" three.numr
Substitution2: "'sups' Supra+AO0A-ndice lookup 20 subtable" uni00B3
Substitution2: "'sinf' +AM0A-ndices cient+AO0A-ficos lookup 19 subtable" uni2083
Substitution2: "'subs' Sub+AO0A-ndice lookup 18 subtable" uni2083
AlternateSubs2: "'aalt' Activar todas las variantes lookup 1 subtable" three.tosf uni2083 three.dnom three.numr uni00B3
EndChar

StartChar: four
Encoding: 52 52 107
Width: 614
Flags: W
HStem: -7 21G<419.5 444> 203 92<223 418 525 611.086> 709 20G<540 558.5>
LayerCount: 2
Fore
SplineSet
568 203 m 2
 510 203 l 1
 484 39 l 2
 480 13 457 -7 431 -7 c 7
 408 -7 391 10 391 32 c 7
 391 42 409 146 418 203 c 1
 111 203 l 2
 88 203 71 219 71 241 c 3
 71 257 80 270 87 278 c 2
 509 712 l 2
 519 722 533 729 547 729 c 3
 570 729 587 712 587 690 c 3
 587 682 546 426 525 295 c 1
 583 295 l 2
 606 295 621 281 621 253 c 3
 621 225 594 203 568 203 c 2
474 553 m 1
 223 295 l 1
 433 295 l 1
 474 553 l 1
EndSplineSet
Substitution2: "'onum' Cifras estilo antiguo lookup 31 subtable" four.tosf
Substitution2: "'frac' Fracciones lookup 24 subtable" four.numr
Substitution2: "'dnom' Denominadores lookup 22 subtable" four.dnom
Substitution2: "'numr' Numeradores lookup 21 subtable" four.numr
Substitution2: "'sups' Supra+AO0A-ndice lookup 20 subtable" uni2074
Substitution2: "'sinf' +AM0A-ndices cient+AO0A-ficos lookup 19 subtable" uni2084
Substitution2: "'subs' Sub+AO0A-ndice lookup 18 subtable" uni2084
AlternateSubs2: "'aalt' Activar todas las variantes lookup 1 subtable" four.tosf uni2084 four.dnom four.numr uni2074
EndChar

StartChar: five
Encoding: 53 53 108
Width: 614
Flags: W
HStem: -9 92<179.715 373.248> 391 92<245.408 449.41> 630 92<287 594.597>
VStem: 505 93<192.484 337.655>
LayerCount: 2
Fore
SplineSet
605 684 m 3
 605 648 573 630 552 630 c 2
 287 630 l 1
 234 459 l 1
 280 472 330 483 379 483 c 3
 501 483 598 406 598 290 c 3
 598 80 395 -9 246 -9 c 3
 197 -9 73 22 73 81 c 7
 73 110 94 134 126 134 c 7
 138 134 148 129 157 121 c 0
 183 97 223 83 260 83 c 3
 380 83 505 150 505 276 c 3
 505 352 431 391 364 391 c 3
 281 391 191 345 160 345 c 3
 137 345 119 361 119 384 c 3
 119 403 179 584 209 683 c 0
 216 706 237 722 260 722 c 3
 362 722 566 722 566 722 c 2
 589 722 605 706 605 684 c 3
EndSplineSet
Substitution2: "'onum' Cifras estilo antiguo lookup 31 subtable" five.tosf
Substitution2: "'frac' Fracciones lookup 24 subtable" five.numr
Substitution2: "'dnom' Denominadores lookup 22 subtable" five.dnom
Substitution2: "'numr' Numeradores lookup 21 subtable" five.numr
Substitution2: "'sups' Supra+AO0A-ndice lookup 20 subtable" uni2075
Substitution2: "'sinf' +AM0A-ndices cient+AO0A-ficos lookup 19 subtable" uni2085
Substitution2: "'subs' Sub+AO0A-ndice lookup 18 subtable" uni2085
AlternateSubs2: "'aalt' Activar todas las variantes lookup 1 subtable" five.tosf uni2085 five.dnom five.numr uni2075
EndChar

StartChar: six
Encoding: 54 54 109
Width: 614
Flags: W
HStem: -9 92<245.829 412.611> 372 92<296.353 457.812>
VStem: 89 101<135.064 274.748> 507 93<172.874 324.6>
LayerCount: 2
Fore
SplineSet
528 641 m 0
 377 604 280 517 226 394 c 1
 272 434 327 464 384 464 c 3
 512 464 600 378 600 264 c 3
 600 103 449 -9 306 -9 c 7
 173 -9 89 92 89 209 c 3
 89 222 90 235 92 248 c 0
 130 487 268 670 519 731 c 0
 523 732 528 732 532 732 c 3
 556 732 571 715 571 694 c 3
 571 665 546 645 528 641 c 0
190 204 m 3
 190 128 253 83 320 83 c 7
 423 83 507 153 507 254 c 3
 507 324 461 372 372 372 c 3
 280 372 190 294 190 204 c 3
EndSplineSet
Substitution2: "'onum' Cifras estilo antiguo lookup 31 subtable" six.tosf
Substitution2: "'frac' Fracciones lookup 24 subtable" six.numr
Substitution2: "'dnom' Denominadores lookup 22 subtable" six.dnom
Substitution2: "'numr' Numeradores lookup 21 subtable" six.numr
Substitution2: "'sups' Supra+AO0A-ndice lookup 20 subtable" uni2076
Substitution2: "'sinf' +AM0A-ndices cient+AO0A-ficos lookup 19 subtable" uni2086
Substitution2: "'subs' Sub+AO0A-ndice lookup 18 subtable" uni2086
AlternateSubs2: "'aalt' Activar todas las variantes lookup 1 subtable" six.tosf uni2086 six.dnom six.numr uni2076
EndChar

StartChar: seven
Encoding: 55 55 110
Width: 614
Flags: W
HStem: -7 21G<135 155> 630 92<173.073 532>
LayerCount: 2
Fore
SplineSet
665 684 m 3
 665 672 660 661 654 653 c 2
 191 16 l 2
 180 1 163 -7 147 -7 c 7
 123 -7 107 9 107 31 c 7
 107 45 113 53 119 61 c 2
 532 630 l 1
 203 630 l 2
 180 630 163 647 163 669 c 3
 163 701 190 722 217 722 c 2
 625 722 l 2
 649 722 665 706 665 684 c 3
EndSplineSet
Substitution2: "'onum' Cifras estilo antiguo lookup 31 subtable" seven.tosf
Substitution2: "'frac' Fracciones lookup 24 subtable" seven.numr
Substitution2: "'dnom' Denominadores lookup 22 subtable" seven.dnom
Substitution2: "'numr' Numeradores lookup 21 subtable" seven.numr
Substitution2: "'sups' Supra+AO0A-ndice lookup 20 subtable" uni2077
Substitution2: "'sinf' +AM0A-ndices cient+AO0A-ficos lookup 19 subtable" uni2087
Substitution2: "'subs' Sub+AO0A-ndice lookup 18 subtable" uni2087
AlternateSubs2: "'aalt' Activar todas las variantes lookup 1 subtable" seven.tosf uni2087 seven.dnom seven.numr uni2077
EndChar

StartChar: eight
Encoding: 56 56 111
Width: 614
Flags: W
HStem: -9 92<235.212 412.773> 318 95<294.219 442.983> 638 92<325.001 486.336>
VStem: 88 94<130.346 248.72> 163 93<447.819 573.212> 497 93<154.543 271.924> 524 93<476.22 602.393>
LayerCount: 2
Fore
SplineSet
617 560 m 3xea
 617 471 567 405 516 369 c 1
 560 338 590 293 590 232 c 7
 590 86 439 -9 306 -9 c 7
 196 -9 88 57 88 171 c 7xf4
 88 268 156 334 215 369 c 1
 183 398 163 439 163 490 c 3
 163 651 304 730 423 730 c 3
 532 730 617 668 617 560 c 3xea
408 638 m 3
 325 638 256 579 256 506 c 3
 256 450 301 413 372 413 c 3
 460 413 524 471 524 544 c 3xea
 524 600 479 638 408 638 c 3
182 187 m 7xf4
 182 123 251 83 320 83 c 7
 404 83 497 139 497 215 c 7
 497 279 428 318 357 318 c 3
 273 318 182 263 182 187 c 7xf4
EndSplineSet
Substitution2: "'onum' Cifras estilo antiguo lookup 31 subtable" eight.tosf
Substitution2: "'frac' Fracciones lookup 24 subtable" eight.numr
Substitution2: "'dnom' Denominadores lookup 22 subtable" eight.dnom
Substitution2: "'numr' Numeradores lookup 21 subtable" eight.numr
Substitution2: "'sups' Supra+AO0A-ndice lookup 20 subtable" uni2078
Substitution2: "'sinf' +AM0A-ndices cient+AO0A-ficos lookup 19 subtable" uni2088
Substitution2: "'subs' Sub+AO0A-ndice lookup 18 subtable" uni2088
AlternateSubs2: "'aalt' Activar todas las variantes lookup 1 subtable" eight.tosf uni2088 eight.dnom eight.numr uni2078
EndChar

StartChar: period
Encoding: 46 46 133
Width: 242
Flags: W
HStem: -4 130<81.2461 180.184>
VStem: 65 131<12.8503 109.15>
LayerCount: 2
Fore
SplineSet
196 61 m 7
 196 25 167 -4 131 -4 c 7
 95 -4 65 25 65 61 c 7
 65 97 95 126 131 126 c 7
 167 126 196 97 196 61 c 7
EndSplineSet
EndChar

StartChar: comma
Encoding: 44 44 134
Width: 242
Flags: W
HStem: -120 246<127.317 148.367>
VStem: 63 131<12.4971 108.676>
LayerCount: 2
Fore
SplineSet
194 53 m 0
 194 -16 174 -73 137 -111 c 0
 132 -117 122 -120 114 -120 c 7
 96 -120 84 -105 84 -89 c 7
 84 -81 87 -73 92 -68 c 0
 106 -53 120 -31 127 -5 c 1
 92 -3 63 25 63 60 c 0
 63 96 93 126 129 126 c 3
 165 126 194 98 194 53 c 0
EndSplineSet
EndChar

StartChar: exclam
Encoding: 33 33 137
Width: 242
Flags: W
HStem: -4 130<81.2461 180.184> 709 20G<217.5 252.5>
VStem: 65 131<12.8503 109.15> 122 71<198.876 230.859> 169 118<562.497 711.25>
LayerCount: 2
Fore
SplineSet
287 679 m 7xc8
 287 675 287 672 286 668 c 0
 277 613 197 247 193 231 c 0
 188 207 174 195 152 195 c 3
 133 195 122 204 122 223 c 3xd0
 122 225 123 228 123 231 c 0
 125 247 160 613 169 668 c 0
 174 702 199 729 236 729 c 7
 269 729 287 708 287 679 c 7xc8
196 61 m 3xe0
 196 25 167 -4 131 -4 c 3
 95 -4 65 25 65 61 c 3
 65 97 95 126 131 126 c 3
 167 126 196 97 196 61 c 3xe0
EndSplineSet
EndChar

StartChar: question
Encoding: 63 63 139
Width: 460
Flags: W
HStem: -4 102<166.456 250.206> 639 92<229.527 399.332>
VStem: 157 103<5.45568 88.5443> 437 94<462.753 601.217>
LayerCount: 2
Fore
SplineSet
148 566 m 7
 123 566 108 583 108 604 c 7
 108 621 118 636 127 644 c 0
 206 715 275 731 358 731 c 3
 471 731 531 641 531 549 c 3
 531 391 390 308 292 287 c 1
 283 225 l 2
 279 199 255 179 229 179 c 3
 206 179 190 195 190 217 c 3
 190 220 191 222 191 225 c 2
 207 329 l 2
 211 355 234 375 260 375 c 3
 340 375 437 442 437 535 c 3
 437 591 399 639 342 639 c 3
 266 639 247 638 183 581 c 0
 174 572 161 566 148 566 c 7
157 47 m 3
 157 75 180 98 208 98 c 3
 236 98 260 75 260 47 c 3
 260 19 236 -4 208 -4 c 3
 180 -4 157 19 157 47 c 3
EndSplineSet
EndChar

StartChar: asterisk
Encoding: 42 42 142
Width: 462
Flags: W
VStem: 271 93<352.099 465 624 736.901>
LayerCount: 2
Fore
SplineSet
364 391 m 2
 364 365 343 345 317 345 c 3
 291 345 271 365 271 391 c 2
 271 465 l 1
 208 428 l 2
 201 424 192 422 184 422 c 3
 157 422 138 441 138 467 c 3
 138 483 148 499 162 507 c 2
 225 545 l 1
 162 582 l 2
 148 590 138 606 138 622 c 7
 138 648 157 668 184 668 c 7
 192 668 201 664 208 660 c 2
 271 624 l 1
 271 698 l 2
 271 724 291 744 317 744 c 3
 343 744 364 724 364 698 c 2
 364 624 l 1
 427 660 l 2
 434 664 443 668 451 668 c 3
 478 668 497 648 497 622 c 3
 497 606 487 590 473 582 c 2
 410 545 l 1
 473 507 l 2
 487 499 497 483 497 467 c 3
 497 441 478 422 451 422 c 3
 443 422 434 424 427 428 c 2
 364 465 l 1
 364 391 l 2
EndSplineSet
EndChar

StartChar: numbersign
Encoding: 35 35 143
Width: 614
Flags: W
HStem: -7 21G<191.5 216 396.5 421> 186 93<83.5488 187 294 392 499 603.713> 446 93<122.87 229 335 434 540 645.008> 709 20G<306.5 330.5 511 535.5>
LayerCount: 2
Fore
SplineSet
359 690 m 3
 359 688 358 686 358 683 c 2
 335 539 l 1
 448 539 l 1
 471 683 l 2
 475 709 498 729 524 729 c 3
 547 729 564 712 564 690 c 3
 564 688 563 686 563 683 c 2
 540 539 l 1
 540 539 590 539 615 539 c 3
 639 539 656 522 656 500 c 3
 656 464 622 446 601 446 c 2
 526 446 l 1
 499 279 l 1
 574 279 l 2
 598 279 615 262 615 239 c 3
 615 204 580 186 559 186 c 2
 484 186 l 1
 461 39 l 2
 457 13 434 -7 408 -7 c 3
 385 -7 368 10 368 32 c 7
 368 34 369 36 369 39 c 2
 392 186 l 1
 279 186 l 1
 256 39 l 2
 252 13 229 -7 203 -7 c 3
 180 -7 163 10 163 32 c 3
 163 34 164 36 164 39 c 2
 187 186 l 1
 187 186 136 186 111 186 c 3
 88 186 72 202 72 224 c 3
 72 260 105 279 126 279 c 2
 202 279 l 1
 229 446 l 1
 229 446 178 446 153 446 c 3
 130 446 113 464 113 486 c 3
 113 524 146 539 167 539 c 2
 243 539 l 1
 266 683 l 2
 270 709 294 729 319 729 c 3
 342 729 359 712 359 690 c 3
321 446 m 1
 294 279 l 1
 407 279 l 1
 434 446 l 1
 321 446 l 1
EndSplineSet
EndChar

StartChar: slash
Encoding: 47 47 144
Width: 304
Flags: W
LayerCount: 2
Fore
SplineSet
426 705 m 2
 71 -39 l 2
 64 -54 48 -65 30 -65 c 7
 5 -65 -15 -44 -15 -20 c 7
 -15 -14 -13 -7 -10 -1 c 2
 345 743 l 2
 352 758 367 769 385 769 c 3
 410 769 431 748 431 724 c 3
 431 718 429 711 426 705 c 2
EndSplineSet
Substitution2: "'frac' Fracciones lookup 23 subtable" fraction
Substitution2: "'aalt' Activar todas las variantes lookup 0 subtable" fraction
EndChar

StartChar: backslash
Encoding: 92 92 145
Width: 304
Flags: W
VStem: 103 209
LayerCount: 2
Fore
SplineSet
156 768 m 3
 176 768 191 755 194 737 c 2
 312 -3 l 2
 313 -8 312 -12 311 -17 c 4
 307 -42 283 -62 259 -62 c 7
 239 -62 224 -49 221 -31 c 2
 103 709 l 2
 102 714 103 718 104 723 c 0
 108 748 132 768 156 768 c 3
EndSplineSet
EndChar

StartChar: parenleft
Encoding: 40 40 146
Width: 371
Flags: W
VStem: 95 93<66.1991 323.478>
LayerCount: 2
Fore
SplineSet
453 635 m 4
 314 555 188 370 188 198 c 7
 188 82 236 -30 335 -105 c 4
 344 -112 349 -124 349 -137 c 7
 349 -172 319 -189 296 -189 c 7
 287 -189 278 -186 272 -181 c 4
 155 -92 95 42 95 183 c 7
 95 440 269 620 414 711 c 4
 422 716 431 719 440 719 c 7
 465 719 480 703 480 681 c 7
 480 660 466 643 453 635 c 4
EndSplineSet
EndChar

StartChar: braceleft
Encoding: 123 123 148
Width: 378
Flags: W
HStem: -184 89<270.137 346.212> 224 90<93.108 173.53> 633 89<379.765 474.618>
VStem: 159 92<-76.2913 167.844> 179 92<-10.2024 218.64>
CounterMasks: 1 e0
LayerCount: 2
Fore
SplineSet
251 -9 m 7xf0
 251 -55 265 -95 324 -95 c 7
 341 -95 355 -113 355 -133 c 7
 355 -167 327 -184 299 -184 c 7
 206 -184 159 -106 159 -13 c 7xf0
 159 2 160 18 163 34 c 0
 173 96 179 139 179 167 c 3
 179 215 162 224 120 224 c 3
 98 224 83 240 83 261 c 3
 83 297 114 314 135 314 c 3
 202 314 211 336 238 504 c 0
 256 616 333 722 442 722 c 3
 468 722 485 708 485 685 c 3
 485 659 461 633 439 633 c 3
 356 633 336 554 322 466 c 0
 304 349 290 304 213 269 c 1
 257 245 271 216 271 171 c 3xe8
 271 150 268 124 260 72 c 0
 254 30 251 10 251 -9 c 7xf0
EndSplineSet
EndChar

StartChar: bracketleft
Encoding: 91 91 150
Width: 340
Flags: W
HStem: -184 90<186 308.17> 632 90<301 436.349>
VStem: 88 230<-173.25 -97.1993>
LayerCount: 2
Fore
SplineSet
186 -94 m 1
 279 -94 l 2
 302 -94 318 -110 318 -132 c 3
 318 -167 285 -184 265 -184 c 2
 127 -184 l 2
 104 -184 88 -168 88 -146 c 7
 88 -144 89 -141 89 -139 c 2
 218 677 l 2
 222 702 245 722 270 722 c 2
 408 722 l 2
 431 722 447 706 447 684 c 3
 447 650 414 632 394 632 c 2
 301 632 l 1
 186 -94 l 1
EndSplineSet
EndChar

StartChar: hyphen
Encoding: 45 45 152
Width: 614
Flags: W
HStem: 245 92<102.521 603.479>
LayerCount: 2
Fore
SplineSet
564 337 m 2
 590 337 610 317 610 291 c 7
 610 265 590 245 564 245 c 2
 142 245 l 2
 116 245 96 265 96 291 c 7
 96 317 116 337 142 337 c 2
 564 337 l 2
EndSplineSet
EndChar

StartChar: underscore
Encoding: 95 95 154
Width: 512
Flags: W
HStem: -78 90<14.4806 487.519>
LayerCount: 2
Fore
SplineSet
53 12 m 2
 449 12 l 2
 474 12 494 -7 494 -32 c 3
 494 -57 474 -78 449 -78 c 2
 53 -78 l 2
 28 -78 8 -57 8 -32 c 3
 8 -7 28 12 53 12 c 2
EndSplineSet
EndChar

StartChar: quotesingle
Encoding: 39 39 156
Width: 236
Flags: W
HStem: 425 304<189.877 229.123>
VStem: 146 127
LayerCount: 2
Fore
SplineSet
272 676 m 2
 235 462 l 2
 231 441 213 425 191 425 c 7
 167 425 146 445 146 470 c 7
 146 473 147 475 147 478 c 2
 184 692 l 2
 188 713 206 729 228 729 c 3
 252 729 273 709 273 684 c 3
 273 681 272 679 272 676 c 2
EndSplineSet
EndChar

StartChar: cent
Encoding: 162 162 159
Width: 614
Flags: W
HStem: 35 83<457.202 521.725> 417 91<454 499.213>
VStem: 134 91<143.614 310.419>
LayerCount: 2
Fore
SplineSet
468 592 m 3
 468 590 467 587 467 585 c 2
 454 508 l 1
 497 504 538 489 569 465 c 0
 578 458 583 446 583 433 c 3
 583 405 559 382 531 382 c 3
 522 382 513 385 507 390 c 0
 489 404 465 413 440 417 c 1
 387 83 l 1
 414 87 440 96 462 110 c 0
 470 115 480 118 489 118 c 3
 512 118 528 102 528 80 c 3
 528 60 514 43 501 35 c 0
 462 11 418 -4 373 -8 c 1
 361 -80 l 2
 357 -105 334 -125 309 -125 c 7
 286 -125 270 -109 270 -87 c 7
 270 -85 271 -82 271 -80 c 2
 284 0 l 1
 193 26 134 108 134 208 c 3
 134 368 263 471 363 500 c 1
 377 585 l 2
 381 610 404 630 429 630 c 3
 452 630 468 614 468 592 c 3
348 404 m 1
 276 358 225 312 225 222 c 3
 225 165 253 118 299 96 c 1
 348 404 l 1
EndSplineSet
EndChar

StartChar: dollar
Encoding: 36 36 160
Width: 614
Flags: W
HStem: 6 91<205.799 262 369 436.328> 666 91<316.649 366 473 525.361>
VStem: 146 94<491.146 601.41> 513 93<164.252 273.533>
LayerCount: 2
Fore
SplineSet
473 757 m 1
 532 753 590 732 650 664 c 0
 656 658 660 649 660 639 c 3
 660 604 629 585 606 585 c 3
 594 585 582 589 575 597 c 0
 525 653 501 664 458 666 c 1
 421 427 l 1
 512 403 606 334 606 238 c 3
 606 94 458 12 354 7 c 1
 340 -79 l 2
 336 -105 313 -125 287 -125 c 7
 264 -125 247 -108 247 -86 c 7
 247 -84 248 -82 248 -79 c 2
 262 6 l 1
 200 12 133 33 74 101 c 0
 68 108 64 117 64 127 c 3
 64 158 90 181 119 181 c 3
 131 181 142 176 149 168 c 0
 195 116 232 101 276 97 c 1
 317 353 l 1
 222 376 146 442 146 530 c 3
 146 666 281 748 380 754 c 1
 388 801 l 2
 392 827 415 847 441 847 c 3
 464 847 481 830 481 808 c 3
 481 806 480 804 480 801 c 2
 473 757 l 1
240 542 m 3
 240 490 296 463 332 450 c 1
 366 660 l 1
 310 654 240 608 240 542 c 3
369 100 m 1
 432 101 513 155 513 224 c 3
 513 275 448 316 405 331 c 1
 369 100 l 1
EndSplineSet
EndChar

StartChar: Euro
Encoding: 8364 8364 161
Width: 614
Flags: W
HStem: -9 90<340.076 488.522> 236 90<69.4027 167.792 261 435.761> 396 90<93.8298 177 301 460.761> 641 90<421.145 572.067>
VStem: 167 94<173.281 236 326 395.438>
LayerCount: 2
Fore
SplineSet
696 616 m 3
 696 588 677 563 643 563 c 3
 629 563 619 568 612 578 c 0
 584 620 543 641 500 641 c 3
 413 641 341 564 301 486 c 1
 432 486 l 2
 455 486 471 470 471 448 c 3
 471 420 446 396 418 396 c 2
 268 396 l 1
 265 385 262 373 260 361 c 0
 258 349 258 337 257 326 c 1
 407 326 l 2
 430 326 446 310 446 288 c 7
 446 253 413 236 392 236 c 2
 261 236 l 1
 276 159 326 81 411 81 c 3
 454 81 500 102 543 144 c 0
 553 154 565 159 579 159 c 3
 602 159 618 141 618 121 c 3
 618 106 609 93 601 85 c 0
 542 26 469 -9 397 -9 c 3
 256 -9 183 113 167 236 c 1
 97 236 l 2
 75 236 59 252 59 273 c 7
 59 308 91 326 112 326 c 2
 166 326 l 1
 167 338 168 349 170 361 c 0
 172 373 174 384 177 396 c 1
 123 396 l 2
 100 396 84 412 84 434 c 3
 84 469 117 486 137 486 c 2
 207 486 l 1
 261 613 379 731 514 731 c 3
 540 731 578 726 615 705 c 0
 657 682 696 641 696 616 c 3
EndSplineSet
EndChar

StartChar: sterling
Encoding: 163 163 162
Width: 614
Flags: W
HStem: 0 90<52.0886 166.07 257 577.761> 344 90<119.403 200 310 485.125> 641 90<356.641 509.974>
VStem: 199 91<434 565.876> 215 95<269.173 344> 224 92<154.855 342.688>
LayerCount: 2
Fore
SplineSet
623 623 m 3xf0
 623 594 601 569 570 569 c 3
 555 569 542 576 536 587 c 0
 512 632 477 641 425 641 c 3
 331 641 290 548 290 473 c 3xf0
 290 460 291 447 293 434 c 1
 457 434 l 2
 480 434 496 418 496 396 c 3
 496 363 463 344 442 344 c 2
 310 344 l 1xe8
 314 319 316 293 316 268 c 3
 316 204 295 128 257 90 c 1
 549 90 l 2
 572 90 588 74 588 52 c 7
 588 24 564 0 535 0 c 2
 80 0 l 2
 57 0 41 16 41 38 c 3
 41 65 68 90 88 90 c 3
 193 90 224 176 224 255 c 3xe4
 224 283 221 313 215 344 c 1xe8
 147 344 l 2
 125 344 109 360 109 381 c 3
 109 416 141 434 162 434 c 2
 200 434 l 1
 200 445 199 456 199 467 c 0
 199 610 311 731 439 731 c 3
 479 731 521 726 553 708 c 0
 597 684 623 642 623 623 c 3xf0
EndSplineSet
EndChar

StartChar: plus
Encoding: 43 43 163
Width: 614
Flags: W
HStem: 245 92<102.521 307 399 603.479>
VStem: 307 92<40.5212 245 337 541.479>
LayerCount: 2
Fore
SplineSet
353 548 m 7
 379 548 399 528 399 502 c 2
 399 337 l 1
 564 337 l 2
 590 337 610 317 610 291 c 3
 610 265 590 245 564 245 c 2
 399 245 l 1
 399 80 l 2
 399 54 379 34 353 34 c 7
 327 34 307 54 307 80 c 2
 307 245 l 1
 142 245 l 2
 116 245 96 265 96 291 c 3
 96 317 116 337 142 337 c 2
 307 337 l 1
 307 502 l 2
 307 528 327 548 353 548 c 7
EndSplineSet
EndChar

StartChar: multiply
Encoding: 215 215 164
Width: 614
Flags: W
LayerCount: 2
Fore
SplineSet
164 527 m 3
 176 527 188 522 196 514 c 2
 353 357 l 1
 511 514 l 2
 519 522 530 527 542 527 c 3
 568 527 587 506 587 482 c 3
 587 470 582 458 574 450 c 2
 417 293 l 1
 574 136 l 2
 582 128 587 116 587 104 c 3
 587 80 568 59 542 59 c 3
 530 59 519 64 511 72 c 2
 353 229 l 1
 196 72 l 2
 188 64 176 59 164 59 c 7
 138 59 119 80 119 104 c 7
 119 116 125 128 133 136 c 2
 290 293 l 1
 133 450 l 2
 125 458 119 470 119 482 c 3
 119 506 138 527 164 527 c 3
EndSplineSet
EndChar

StartChar: less
Encoding: 60 60 168
Width: 614
Flags: W
LayerCount: 2
Fore
SplineSet
116 253 m 2
 104 259 95 273 95 288 c 3
 95 311 113 330 129 337 c 2
 585 538 l 2
 591 541 599 542 606 542 c 7
 630 542 645 525 645 504 c 7
 645 480 626 461 611 454 c 2
 250 295 l 1
 561 136 l 2
 573 130 581 117 581 102 c 3
 581 68 551 48 528 48 c 3
 521 48 514 49 508 52 c 2
 116 253 l 2
EndSplineSet
EndChar

StartChar: asciitilde
Encoding: 126 126 170
Width: 614
Flags: W
HStem: 217 70<402.076 517.14> 301 70<190.86 305.924>
LayerCount: 2
Fore
SplineSet
230 371 m 3
 289 371 338 341 370 325 c 0
 405 307 443 287 478 287 c 3
 499 287 520 306 528 327 c 0
 533 341 545 351 561 351 c 7
 580 351 596 334 596 316 c 7
 596 274 538 217 478 217 c 3
 419 217 370 247 338 263 c 0
 303 281 265 301 230 301 c 3
 209 301 188 282 180 261 c 0
 175 247 163 237 147 237 c 3
 128 237 112 254 112 272 c 3
 112 314 170 371 230 371 c 3
EndSplineSet
EndChar

StartChar: logicalnot
Encoding: 172 172 171
Width: 614
Flags: W
HStem: 345 90<124.83 525>
LayerCount: 2
Fore
SplineSet
585 435 m 2
 607 435 623 419 623 398 c 3
 623 396 622 393 622 390 c 2
 589 186 l 2
 585 161 563 140 538 140 c 7
 515 140 498 157 498 179 c 7
 498 181 499 184 499 186 c 2
 525 345 l 1
 154 345 l 2
 131 345 115 361 115 383 c 3
 115 418 148 435 168 435 c 2
 585 435 l 2
EndSplineSet
EndChar

StartChar: asciicircum
Encoding: 94 94 172
Width: 614
Flags: W
LayerCount: 2
Fore
SplineSet
110 267 m 2
 367 627 l 2
 377 641 393 650 410 650 c 3
 427 650 439 641 445 627 c 2
 588 267 l 2
 590 262 591 257 591 251 c 7
 591 219 560 200 539 200 c 7
 522 200 509 209 503 223 c 2
 388 512 l 1
 181 223 l 2
 171 209 156 200 139 200 c 3
 116 200 100 216 100 238 c 3
 100 250 105 260 110 267 c 2
EndSplineSet
EndChar

StartChar: percent
Encoding: 37 37 173
Width: 959
Flags: W
HStem: -20 93<698.516 804.591> 277 93<724.452 830.538> 351 93<243.537 349.637> 648 93<269.498 375.559>
VStem: 135 93<457.654 604.443> 391 94<487.557 634.222> 589 94<86.6542 233.443> 846 93<116.557 263.222>
LayerCount: 2
Fore
SplineSet
895 702 m 3x9f
 895 689 888 675 881 667 c 2
 258 -3 l 2
 248 -14 232 -20 218 -20 c 7
 194 -20 178 -4 178 18 c 7
 178 32 185 45 192 53 c 2
 816 723 l 2
 826 734 840 741 855 741 c 3
 879 741 895 723 895 702 c 3x9f
340 741 m 3
 437 741 485 674 485 588 c 3
 485 477 414 351 279 351 c 3xbf
 182 351 135 418 135 504 c 3
 135 615 205 741 340 741 c 3
327 648 m 3
 282 648 228 613 228 518 c 3
 228 484 239 444 293 444 c 3
 337 444 391 479 391 574 c 3
 391 607 380 648 327 648 c 3
795 370 m 3xdf
 892 370 939 303 939 217 c 3
 939 106 869 -20 734 -20 c 3
 637 -20 589 47 589 133 c 3
 589 244 660 370 795 370 c 3xdf
782 277 m 3
 737 277 683 242 683 147 c 3
 683 113 694 73 748 73 c 3
 792 73 846 108 846 203 c 3
 846 236 835 277 782 277 c 3
EndSplineSet
EndChar

StartChar: at
Encoding: 64 64 174
Width: 970
Flags: W
HStem: -167 92<405.244 692.213> 59 75<446.597 570.247> 61 93<726.294 821.896> 437 71<491.022 621.672> 639 92<417.2 699.878>
VStem: 109 93<137.541 420.464> 319 90<176.423 344.744> 651 73<225.846 347.95> 665 96<444 494.352> 869 92<215.996 479.285>
LayerCount: 2
Fore
SplineSet
961 358 m 3xbf40
 961 192 900 61 772 61 c 3xbf40
 699 61 664 85 644 151 c 1
 608 83 544 59 481 59 c 3
 370 59 319 167 319 260 c 3
 319 410 412 508 554 508 c 3
 599 508 648 480 665 444 c 1
 672 482 680 503 720 503 c 3
 744 503 761 481 761 458 c 3xdec0
 761 445 724 204 724 188 c 3
 724 169 737 154 771 154 c 3
 855 154 869 283 869 358 c 3
 869 561 723 639 566 639 c 3
 322 639 202 504 202 271 c 3
 202 40 366 -75 518 -75 c 3
 635 -75 685 -68 765 -11 c 0
 773 -5 782 -2 791 -2 c 3
 819 -2 837 -22 837 -48 c 3
 837 -62 830 -77 818 -86 c 0
 724 -154 640 -167 518 -167 c 3
 318 -167 109 -5 109 271 c 3
 109 598 314 731 566 731 c 3
 804 731 961 588 961 358 c 3xbf40
651 323 m 3
 651 382 631 437 559 437 c 3
 469 437 409 337 409 255 c 3
 409 213 436 134 493 134 c 3xdf40
 601 134 651 238 651 323 c 3
EndSplineSet
EndChar

StartChar: ampersand
Encoding: 38 38 175
Width: 724
Flags: W
HStem: -7 92<219.948 404.416> 641 92<359.064 493.255>
VStem: 81 94<128.105 248.275> 238 94<487.571 613.501> 507 93<538.134 626.616>
LayerCount: 2
Fore
SplineSet
417 379 m 1
 454 326 493 274 532 228 c 1
 552 258 572 290 590 321 c 0
 600 337 618 349 637 349 c 3
 665 349 676 330 676 310 c 3
 676 298 673 292 669 285 c 0
 647 246 622 204 590 162 c 1
 624 124 654 93 669 79 c 0
 676 72 680 63 680 52 c 7
 680 22 654 -2 626 -2 c 7
 615 -2 604 2 597 9 c 0
 581 24 555 52 524 87 c 1
 464 33 384 -7 289 -7 c 3
 169 -7 81 56 81 170 c 3
 81 298 193 376 276 419 c 1
 253 462 238 502 238 545 c 3
 238 679 350 733 457 733 c 3
 536 733 600 670 600 601 c 3
 600 502 499 416 417 379 c 1
332 565 m 3
 332 537 352 488 370 454 c 1
 417 469 507 537 507 590 c 3
 507 620 470 641 441 641 c 3
 378 641 332 614 332 565 c 3
175 188 m 3
 175 113 245 85 303 85 c 3
 376 85 425 111 468 151 c 1
 413 214 363 277 320 343 c 1
 269 315 175 265 175 188 c 3
EndSplineSet
EndChar

StartChar: degree
Encoding: 176 176 176
Width: 384
Flags: W
HStem: 422 70<225.618 340.382> 662 70<225.618 340.382>
VStem: 127 70<519.914 634.086> 369 70<519.914 634.086>
LayerCount: 2
Fore
SplineSet
197 577 m 7
 197 530 236 492 283 492 c 7
 330 492 369 530 369 577 c 7
 369 624 330 662 283 662 c 7
 236 662 197 624 197 577 c 7
127 577 m 7
 127 663 197 732 283 732 c 7
 369 732 439 663 439 577 c 7
 439 491 369 422 283 422 c 7
 197 422 127 491 127 577 c 7
EndSplineSet
EndChar

StartChar: bar
Encoding: 124 124 177
Width: 281
Flags: W
HStem: 709 20G<242.5 267.5>
VStem: 72 221
LayerCount: 2
Fore
SplineSet
293 684 m 2
 162 -148 l 2
 158 -173 134 -193 109 -193 c 7
 84 -193 68 -173 72 -148 c 2
 203 684 l 2
 207 709 230 729 255 729 c 7
 280 729 297 709 293 684 c 2
EndSplineSet
EndChar

StartChar: brokenbar
Encoding: 166 166 178
Width: 281
Flags: W
HStem: 709 20G<243.5 267.5>
VStem: 72 1<-152.906 -146.094> 154 1<367.094 373.906> 212 1<164.094 170.906> 294 1<684.094 690.906>
LayerCount: 2
Fore
SplineSet
212 164 m 2
 163 -146 l 2
 159 -171 136 -191 111 -191 c 7
 88 -191 72 -175 72 -153 c 7
 72 -151 73 -148 73 -146 c 2
 122 164 l 2
 126 189 149 209 174 209 c 3
 197 209 213 193 213 171 c 3
 213 169 212 166 212 164 c 2
294 684 m 2
 245 374 l 2
 241 349 218 329 193 329 c 3
 170 329 154 345 154 367 c 3
 154 369 155 372 155 374 c 2
 204 684 l 2
 208 709 231 729 256 729 c 3
 279 729 295 713 295 691 c 3
 295 689 294 686 294 684 c 2
EndSplineSet
EndChar

StartChar: dieresis
Encoding: 168 168 179
Width: 512
Flags: W
HStem: 614 109<226.037 313.324 410.676 497.963>
VStem: 215 109<624.676 711.963> 400 109<624.676 711.963>
LayerCount: 2
Fore
SplineSet
400 668 m 7
 400 698 424 723 454 723 c 7
 484 723 509 698 509 668 c 7
 509 638 484 614 454 614 c 7
 424 614 400 638 400 668 c 7
215 668 m 7
 215 698 240 723 270 723 c 7
 300 723 324 698 324 668 c 7
 324 638 300 614 270 614 c 7
 240 614 215 638 215 668 c 7
EndSplineSet
EndChar

StartChar: grave
Encoding: 96 96 180
Width: 512
Flags: W
HStem: 557 231
VStem: 151 170
LayerCount: 2
Fore
SplineSet
151 743 m 7
 151 768 171 788 196 788 c 7
 213 788 227 779 235 765 c 6
 315 624 l 6
 319 617 321 610 321 602 c 7
 321 577 301 557 276 557 c 7
 259 557 245 566 237 580 c 6
 157 721 l 6
 153 728 151 735 151 743 c 7
EndSplineSet
EndChar

StartChar: acute
Encoding: 180 180 181
Width: 512
Flags: W
HStem: 556 232
VStem: 284 171
LayerCount: 2
Fore
SplineSet
455 743 m 3
 455 735 453 728 449 721 c 2
 368 579 l 2
 360 565 346 556 329 556 c 3
 304 556 284 576 284 601 c 3
 284 609 286 617 290 624 c 2
 371 766 l 2
 379 780 393 788 410 788 c 3
 435 788 455 768 455 743 c 3
EndSplineSet
EndChar

StartChar: circumflex
Encoding: 710 710 182
Width: 512
Flags: W
HStem: 557 244
VStem: 206 288<573 599>
LayerCount: 2
Fore
SplineSet
206 592 m 3
 206 599 208 605 211 610 c 2
 320 784 l 2
 326 794 337 801 350 801 c 7
 363 801 374 794 380 784 c 2
 489 610 l 2
 492 605 494 599 494 592 c 3
 494 573 478 557 459 557 c 3
 446 557 435 563 429 573 c 2
 350 700 l 1
 271 573 l 2
 265 563 254 557 241 557 c 3
 222 557 206 573 206 592 c 3
EndSplineSet
EndChar

StartChar: macron
Encoding: 175 175 184
Width: 512
Flags: W
HStem: 624 90<208.481 515.519>
VStem: 202 320<630.207 707.246>
LayerCount: 2
Fore
SplineSet
247 714 m 2
 477 714 l 2
 502 714 522 693 522 668 c 3
 522 643 502 624 477 624 c 2
 247 624 l 2
 222 624 202 643 202 668 c 3
 202 693 222 714 247 714 c 2
EndSplineSet
EndChar

StartChar: cedilla
Encoding: 184 184 185
Width: 512
Flags: W
HStem: -199 60<147.703 285.006> -186 58<124.185 220.458> -88 60<258 285.859>
VStem: 213 59<-27.3437 37.977> 287 61<-131.287 -90.4745>
LayerCount: 2
Fore
SplineSet
258 -28 m 1xb8
 300 -28 348 -48 348 -98 c 3
 348 -167 274 -199 222 -199 c 7xb8
 189 -199 163 -197 137 -186 c 0
 128 -182 122 -173 122 -162 c 3
 122 -139 144 -128 157 -128 c 3x78
 161 -128 164 -129 168 -131 c 0
 183 -138 200 -139 232 -139 c 3
 248 -139 287 -131 287 -109 c 3
 287 -92 263 -88 246 -88 c 3
 227 -88 217 -93 209 -93 c 3
 195 -93 184 -82 184 -68 c 3
 184 -66 184 -65 184 -63 c 0
 185 -57 213 16 213 16 c 2
 218 30 232 40 246 40 c 3
 260 40 272 30 272 15 c 3
 272 0 262 -14 258 -28 c 1xb8
EndSplineSet
EndChar

StartChar: notequal
Encoding: 8800 8800 187
Width: 614
Flags: W
HStem: 145 92<103.521 258 383 604.479> 356 92<103.521 325 449 604.479>
VStem: 191 90<-113.121 -65.1213> 427 90<659.023 707.479>
LayerCount: 2
Fore
SplineSet
471 714 m 0
 497 714 517 694 517 668 c 0
 517 664 515 658 514 654 c 2
 449 448 l 1
 565 448 l 2
 591 448 611 428 611 402 c 0
 611 376 591 356 565 356 c 2
 421 356 l 1
 383 237 l 1
 565 237 l 2
 591 237 611 217 611 191 c 0
 611 165 591 145 565 145 c 2
 354 145 l 1
 281 -88 l 2
 275 -107 257 -120 238 -120 c 0
 209 -120 191 -97 191 -74 c 0
 191 -70 193 -64 194 -60 c 2
 258 145 l 1
 143 145 l 2
 117 145 97 165 97 191 c 0
 97 217 117 237 143 237 c 2
 287 237 l 1
 325 356 l 1
 143 356 l 2
 117 356 97 376 97 402 c 0
 97 428 117 448 143 448 c 2
 354 448 l 1
 427 682 l 2
 433 701 452 714 471 714 c 0
EndSplineSet
EndChar
